<?xml version="1.0" encoding="utf-8"?>
<!-- Generator: Adobe Illustrator 24.1.2, SVG Export Plug-In . SVG Version: 6.00 Build 0)  -->
<svg version="1.1" xmlns="http://www.w3.org/2000/svg" xmlns:xlink="http://www.w3.org/1999/xlink" x="0px" y="0px"
	 viewBox="0 0 750 500" style="enable-background:new 0 0 750 500;" xml:space="preserve">
<style type="text/css">
	.st0{fill:url(#SVGID_1_);}
	.st1{fill:#338C90;}
	.st2{fill:#222955;}
	.st3{fill:#BAB0EA;}
	.st4{fill:#5B3E87;}
	.st5{fill:#E5947F;}
	.st6{fill:#EFC8A8;}
	.st7{fill:#9AA3DB;}
	.st8{fill:#A6C3B7;}
	.st9{fill:#F9B1A2;}
	.st10{clip-path:url(#SVGID_3_);fill:#E5947F;}
	.st11{clip-path:url(#SVGID_3_);fill:url(#SVGID_4_);}
	.st12{fill:#889B6D;}
	.st13{fill:url(#SVGID_5_);}
	.st14{fill:#EFAE95;}
	.st15{fill:#6E698C;}
	.st16{fill:#0B1033;}
	.st17{fill:#FEC5A7;}
	.st18{fill:#FFFFFF;}
	.st19{fill:#11193F;}
	.st20{fill:#7A7296;}
	.st21{fill:none;stroke:#261E60;stroke-width:0.8966;stroke-miterlimit:10;}
	.st22{fill:#D69580;}
	.st23{fill:#F5F3FF;}
	.st24{opacity:0.67;fill:#04061B;}
	.st25{fill:#04061B;}
	.st26{fill:none;stroke:#11193F;stroke-width:0.8966;stroke-miterlimit:10;}
	.st27{fill:#EFD5BB;}
	.st28{fill:#261E60;}
	.st29{fill:#F6DEC2;}
	.st30{fill:#1E1A56;}
	.st31{fill:#A84F00;}
	.st32{fill:#2F2369;}
	.st33{fill:#DB7197;}
	.st34{fill:#EFB59E;}
</style>
<g id="BACKGROUND">
	<g>
		<g>
			<linearGradient id="SVGID_1_" gradientUnits="userSpaceOnUse" x1="342.0152" y1="267.1001" x2="696.5363" y2="289.0131">
				<stop  offset="0" style="stop-color:#FFFFFF;stop-opacity:0"/>
				<stop  offset="0.4369" style="stop-color:#F1A08E;stop-opacity:0.5824"/>
				<stop  offset="0.7502" style="stop-color:#E85F41"/>
			</linearGradient>
			<path class="st0" d="M164.63,461.17c3.52,1.07,7.2,0.73,11.46,0.73c21.51-0.03,43.02-0.06,64.53-0.09
				c71.19-0.09,142.38-0.19,213.56-0.28c56.58-0.08,113.16-0.15,169.74-0.23c4.8-0.01,9.59-0.01,14.39-0.02
				c8.08-0.01,18.74-26.78,21.38-32.16c9.74-19.85,17.94-40.49,25.39-61.3c7.3-20.4,13.57-41.04,18.39-62.16
				c6.46-28.32,14.35-56.07,3.37-84.77c-9.14-23.89-33.37-43.41-58.74-40.15c-21.44,2.76-55.75,29.48-70.18-2
				c-5.41-11.81-4.07-25.47-6.13-38.29c-4.39-27.2-24.94-50.3-50.17-61.38C496.38,67.99,467.2,68,440.62,75.28
				c-16.63,4.55-32.88,12.11-44.8,24.57c-8.82,9.22-14.89,20.7-22.91,30.63c-8.02,9.93-19.06,18.7-31.82,19.04
				c-18.74,0.51-32.52-16.33-47.41-27.73c-24.08-18.43-57.49-23.94-86.21-14.21c-12.79,4.33-24.69,11.56-33.86,21.46
				c-15.09,16.28-22.01,38.97-22.24,61.16c-0.23,22.19,5.74,44.04,13.74,64.74c5.14,13.31,11.26,26.99,9.97,41.19
				c-0.23,2.58-0.76,5.24-2.31,7.31c-3.13,4.17-9.12,4.55-14.33,4.64c-17.11,0.28-35.26,1.72-49.14,11.73
				c-23.95,17.27-25.28,54.4-10.93,80.2c7.33,13.18,17.8,24.23,29.3,33.85c10.02,8.38,23.56,20.76,34.73,26.4
				C163.14,460.64,163.88,460.94,164.63,461.17z"/>
		</g>
	</g>
</g>
<g id="OBJECTS">
	<g>
		<g>
			<g>
				<path class="st1" d="M567.83,433.77h25.96c3.81-3.34,6.97-7.62,9.23-11.63c5.14-9.12,8.69-19.48,16.34-26.62
					c3.64-3.39,8.01-5.87,12.09-8.71c8.92-6.23,16.86-15.14,18.18-25.94c0.94-7.71-1.58-15.45-1.28-23.2
					c1-26.06,32.34-43.73,32.24-69.8c-0.03-6.51-3.21-13.96-9.59-15.23c-2.97-0.59-6.07,0.31-8.75,1.74
					c-8.65,4.61-13.41,13.99-18.13,22.58c-4.72,8.59-10.77,17.6-20.21,20.23c-2.4,0.67-4.92,0.89-7.3,1.62
					c-11.03,3.39-15.85,16.33-17.08,27.81c-1.23,11.47-0.65,23.84-6.89,33.55c-6.75,10.52-20.02,15.39-26.91,25.82
					c-4.67,7.06-5.85,15.99-4.83,24.39C561.71,416.91,563.21,427.31,567.83,433.77z"/>
				<g>
					<path class="st2" d="M601.66,374.45l-0.7-0.74c7.28-6.95,14.8-14.14,20.21-22.82c5.62-9.01,8.8-19.44,11.88-29.52
						c3.04-9.94,6.18-20.23,11.65-29.23c3.52-5.79,8.03-11.06,12.38-16.16c6.09-7.13,12.39-14.5,15.92-23.26l0.94,0.38
						c-3.59,8.91-9.94,16.35-16.09,23.54c-4.33,5.07-8.81,10.31-12.29,16.03c-5.41,8.89-8.53,19.11-11.55,29
						c-3.1,10.15-6.3,20.64-11.99,29.76C616.55,360.22,608.98,367.45,601.66,374.45z"/>
				</g>
				<g>
					<path class="st2" d="M613.6,362.95l-0.88-0.51c2.33-3.96,6.15-7.09,10.49-8.58c1.14-0.39,2.31-0.68,3.45-0.95
						c1.37-0.34,2.79-0.68,4.11-1.21c5.05-2.02,8.61-6.59,11.74-10.62l0.8,0.62c-3.05,3.93-6.85,8.82-12.17,10.94
						c-1.38,0.55-2.84,0.91-4.25,1.25c-1.11,0.27-2.27,0.55-3.36,0.93C619.42,356.23,615.8,359.19,613.6,362.95z"/>
				</g>
				<g>
					<path class="st2" d="M629.82,333.7l-0.97-0.31c1.86-5.86,0.98-12.15-0.14-17.52l-0.25-1.19c-1.23-5.84-2.5-11.87,0.26-17.07
						l0.9,0.48c-2.59,4.88-1.35,10.73-0.17,16.39l0.25,1.2C630.84,321.16,631.75,327.61,629.82,333.7z"/>
				</g>
				<g>
					<path class="st2" d="M643.26,297.45l-1-0.17c0.48-2.91,2.44-5.74,5.53-7.97c1.89-1.36,3.99-2.41,6.03-3.42
						c0.8-0.4,1.61-0.8,2.4-1.22c8.69-4.6,15.16-11.35,18.23-19.01l0.94,0.38c-3.16,7.89-9.8,14.82-18.7,19.53
						c-0.8,0.42-1.61,0.82-2.42,1.23c-2,0.99-4.06,2.02-5.88,3.33C645.52,292.21,643.7,294.8,643.26,297.45z"/>
				</g>
			</g>
		</g>
		<g>
			<path class="st3" d="M636.41,375.4c-2.16-12.95-9.07-24.68-16.78-35.46c-16.22,14.93-22.36,39.28-15.06,59.76
				c1.27,3.57,2.97,7.1,5.7,9.8c7.49,7.39,15.15,3.78,19.82-3.49C636.04,396.75,638.21,386.21,636.41,375.4z"/>
			<g>
				<path class="st4" d="M618.71,428.23c-0.5,0-0.9-0.4-0.9-0.9v-78.49c0-0.5,0.4-0.9,0.9-0.9c0.5,0,0.9,0.4,0.9,0.9v78.49
					C619.6,427.83,619.2,428.23,618.71,428.23z"/>
			</g>
			<g>
				<path class="st4" d="M620.21,371.93c-0.15,0-0.3-0.04-0.44-0.12c-0.43-0.24-0.58-0.79-0.34-1.22c2.78-4.91,5.53-9.92,8.18-14.87
					c0.23-0.44,0.78-0.6,1.21-0.37c0.44,0.23,0.6,0.78,0.37,1.21c-2.65,4.97-5.41,9.98-8.2,14.91
					C620.82,371.76,620.52,371.93,620.21,371.93z"/>
			</g>
			<g>
				<path class="st4" d="M618.27,385.98c-0.24,0-0.48-0.09-0.65-0.28c-4.64-4.92-8.92-10.24-12.74-15.82
					c-0.28-0.41-0.18-0.97,0.23-1.25c0.41-0.28,0.97-0.17,1.25,0.23c3.77,5.5,7.99,10.75,12.56,15.6c0.34,0.36,0.32,0.93-0.04,1.27
					C618.71,385.9,618.49,385.98,618.27,385.98z"/>
			</g>
		</g>
		
			<rect x="493.85" y="212.33" transform="matrix(-1 -1.224647e-16 1.224647e-16 -1 1069.8752 639.702)" class="st5" width="82.18" height="215.03"/>
		
			<rect x="506.01" y="192.56" transform="matrix(-1 -1.224647e-16 1.224647e-16 -1 1069.8752 442.9862)" class="st5" width="57.86" height="57.86"/>
		
			<rect x="501.34" y="219.12" transform="matrix(-1 -1.224647e-16 1.224647e-16 -1 1073.0775 447.106)" class="st6" width="70.39" height="8.87"/>
		
			<rect x="501.34" y="234.77" transform="matrix(-1 -1.224647e-16 1.224647e-16 -1 1073.0775 478.4129)" class="st6" width="70.39" height="8.87"/>
		
			<rect x="501.34" y="251.38" transform="matrix(-1 -1.224647e-16 1.224647e-16 -1 1073.0775 511.629)" class="st6" width="70.39" height="8.87"/>
		
			<rect x="501.34" y="267.03" transform="matrix(-1 -1.224647e-16 1.224647e-16 -1 1073.0775 542.9359)" class="st6" width="70.39" height="8.87"/>
		
			<rect x="501.34" y="281.97" transform="matrix(-1 -1.224647e-16 1.224647e-16 -1 1073.0775 572.8174)" class="st6" width="70.39" height="8.87"/>
		
			<rect x="501.34" y="298.2" transform="matrix(-1 -1.224647e-16 1.224647e-16 -1 1073.0775 605.2636)" class="st6" width="70.39" height="8.87"/>
		
			<rect x="501.34" y="312.78" transform="matrix(-1 -1.224647e-16 1.224647e-16 -1 1073.0775 634.4355)" class="st6" width="70.39" height="8.87"/>
		
			<rect x="501.34" y="327.73" transform="matrix(-1 -1.224647e-16 1.224647e-16 -1 1073.0775 664.3347)" class="st6" width="70.39" height="8.87"/>
		
			<rect x="501.34" y="345.23" transform="matrix(-1 -1.224647e-16 1.224647e-16 -1 1073.0775 699.3326)" class="st6" width="70.39" height="8.87"/>
		
			<rect x="441.73" y="275.06" transform="matrix(-1 -1.224647e-16 1.224647e-16 -1 952.1925 703.1095)" class="st7" width="68.74" height="152.98"/>
		<polygon class="st8" points="365.2,246.34 365.2,220.81 374.59,220.81 374.59,208.94 427.09,208.94 427.09,220.81 436.49,220.81 
			436.49,246.34 441.93,246.34 441.93,429.23 359.75,429.23 359.75,246.34 		"/>
		<polygon class="st5" points="313.29,318.64 313.5,305.34 323.1,305.49 323.32,291.3 327.33,291.37 327.56,276.6 341.85,276.82 
			341.61,291.59 345.62,291.65 345.4,305.84 355,305.99 354.79,319.29 367.3,319.49 365.57,429.74 299.05,428.69 300.78,318.45 		
			"/>
		
			<rect x="407.73" y="261.73" transform="matrix(-1 -1.224647e-16 1.224647e-16 -1 841.8508 536.3677)" class="st7" width="26.39" height="12.91"/>
		
			<rect x="369.19" y="261.73" transform="matrix(-1 -1.224647e-16 1.224647e-16 -1 764.7641 536.3677)" class="st7" width="26.39" height="12.91"/>
		
			<rect x="407.73" y="280.9" transform="matrix(-1 -1.224647e-16 1.224647e-16 -1 841.8508 574.7187)" class="st7" width="26.39" height="12.91"/>
		
			<rect x="369.19" y="280.9" transform="matrix(-1 -1.224647e-16 1.224647e-16 -1 764.7641 574.7187)" class="st7" width="26.39" height="12.91"/>
		
			<rect x="407.73" y="300.08" transform="matrix(-1 -1.224647e-16 1.224647e-16 -1 841.8508 613.0698)" class="st7" width="26.39" height="12.91"/>
		
			<rect x="369.19" y="300.08" transform="matrix(-1 -1.224647e-16 1.224647e-16 -1 764.7641 613.0698)" class="st7" width="26.39" height="12.91"/>
		
			<rect x="407.73" y="319.25" transform="matrix(-1 -1.224647e-16 1.224647e-16 -1 841.8508 651.4208)" class="st7" width="26.39" height="12.91"/>
		
			<rect x="369.19" y="319.25" transform="matrix(-1 -1.224647e-16 1.224647e-16 -1 764.7641 651.4208)" class="st7" width="26.39" height="12.91"/>
		
			<rect x="407.73" y="338.43" transform="matrix(-1 -1.224647e-16 1.224647e-16 -1 841.8508 689.7717)" class="st7" width="26.39" height="12.91"/>
		
			<rect x="369.19" y="338.43" transform="matrix(-1 -1.224647e-16 1.224647e-16 -1 764.7641 689.7717)" class="st7" width="26.39" height="12.91"/>
		
			<rect x="407.73" y="357.6" transform="matrix(-1 -1.224647e-16 1.224647e-16 -1 841.8508 728.1226)" class="st7" width="26.39" height="12.91"/>
		
			<rect x="369.19" y="357.6" transform="matrix(-1 -1.224647e-16 1.224647e-16 -1 764.7641 728.1226)" class="st7" width="26.39" height="12.91"/>
		
			<rect x="407.73" y="376.78" transform="matrix(-1 -1.224647e-16 1.224647e-16 -1 841.8508 766.4736)" class="st7" width="26.39" height="12.91"/>
		
			<rect x="369.19" y="376.78" transform="matrix(-1 -1.224647e-16 1.224647e-16 -1 764.7641 766.4736)" class="st7" width="26.39" height="12.91"/>
		
			<rect x="369.19" y="395.96" transform="matrix(-1 -1.224647e-16 1.224647e-16 -1 764.7641 804.8244)" class="st7" width="26.39" height="12.91"/>
		
			<rect x="369.19" y="415.13" transform="matrix(-1 -1.224647e-16 1.224647e-16 -1 764.7641 843.1752)" class="st7" width="26.39" height="12.91"/>
		<polygon class="st3" points="372.36,369.83 372.36,341.07 398.26,341.07 398.26,369.83 405.1,369.83 405.1,429.23 352.67,429.23 
			352.67,369.83 		"/>
		
			<rect x="395.35" y="378.15" transform="matrix(-1 -1.224647e-16 1.224647e-16 -1 796.1919 779.3875)" class="st6" width="5.49" height="23.1"/>
		
			<rect x="386.58" y="378.15" transform="matrix(-1 -1.224647e-16 1.224647e-16 -1 778.6532 779.3875)" class="st6" width="5.49" height="23.1"/>
		
			<rect x="378.58" y="378.15" transform="matrix(-1 -1.224647e-16 1.224647e-16 -1 762.6543 779.3875)" class="st6" width="5.49" height="23.1"/>
		
			<rect x="344.06" y="329.04" transform="matrix(-1 -1.224647e-16 1.224647e-16 -1 700.2581 670.2048)" class="st3" width="12.13" height="12.13"/>
		
			<rect x="326.84" y="329.04" transform="matrix(-1 -1.224647e-16 1.224647e-16 -1 665.8206 670.2048)" class="st3" width="12.13" height="12.13"/>
		
			<rect x="310.8" y="329.04" transform="matrix(-1 -1.224647e-16 1.224647e-16 -1 633.731 670.2048)" class="st3" width="12.13" height="12.13"/>
		
			<rect x="344.06" y="347.1" transform="matrix(-1 -1.224647e-16 1.224647e-16 -1 700.2581 706.3355)" class="st3" width="12.13" height="12.13"/>
		
			<rect x="326.84" y="347.1" transform="matrix(-1 -1.224647e-16 1.224647e-16 -1 665.8206 706.3355)" class="st3" width="12.13" height="12.13"/>
		
			<rect x="310.8" y="347.1" transform="matrix(-1 -1.224647e-16 1.224647e-16 -1 633.731 706.3355)" class="st3" width="12.13" height="12.13"/>
		
			<rect x="344.06" y="364.45" transform="matrix(-1 -1.224647e-16 1.224647e-16 -1 700.2581 741.0367)" class="st3" width="12.13" height="12.13"/>
		
			<rect x="326.84" y="364.45" transform="matrix(-1 -1.224647e-16 1.224647e-16 -1 665.8206 741.0367)" class="st3" width="12.13" height="12.13"/>
		
			<rect x="310.8" y="364.45" transform="matrix(-1 -1.224647e-16 1.224647e-16 -1 633.731 741.0367)" class="st3" width="12.13" height="12.13"/>
		
			<rect x="386.36" y="219.12" transform="matrix(-1 -1.224647e-16 1.224647e-16 -1 801.6808 469.5442)" class="st7" width="28.96" height="31.31"/>
		
			<rect x="496.68" y="283.64" transform="matrix(-1 -1.224647e-16 1.224647e-16 -1 1002.6896 579.4149)" class="st6" width="9.32" height="12.13"/>
		
			<rect x="484.26" y="283.64" transform="matrix(-1 -1.224647e-16 1.224647e-16 -1 977.8463 579.4149)" class="st6" width="9.32" height="12.13"/>
		
			<rect x="470.86" y="283.64" transform="matrix(-1 -1.224647e-16 1.224647e-16 -1 951.0347 579.4149)" class="st6" width="9.32" height="12.13"/>
		
			<rect x="458.44" y="283.64" transform="matrix(-1 -1.224647e-16 1.224647e-16 -1 926.1913 579.4149)" class="st6" width="9.32" height="12.13"/>
		
			<rect x="445.52" y="283.64" transform="matrix(-1 -1.224647e-16 1.224647e-16 -1 900.364 579.4149)" class="st6" width="9.32" height="12.13"/>
		
			<rect x="496.68" y="300.08" transform="matrix(-1 -1.224647e-16 1.224647e-16 -1 1002.6896 612.2872)" class="st6" width="9.32" height="12.13"/>
		
			<rect x="484.26" y="300.08" transform="matrix(-1 -1.224647e-16 1.224647e-16 -1 977.8463 612.2872)" class="st6" width="9.32" height="12.13"/>
		
			<rect x="470.86" y="300.08" transform="matrix(-1 -1.224647e-16 1.224647e-16 -1 951.0347 612.2872)" class="st6" width="9.32" height="12.13"/>
		
			<rect x="458.44" y="300.08" transform="matrix(-1 -1.224647e-16 1.224647e-16 -1 926.1913 612.2872)" class="st6" width="9.32" height="12.13"/>
		
			<rect x="445.52" y="300.08" transform="matrix(-1 -1.224647e-16 1.224647e-16 -1 900.364 612.2872)" class="st6" width="9.32" height="12.13"/>
		
			<rect x="496.68" y="316.51" transform="matrix(-1 -1.224647e-16 1.224647e-16 -1 1002.6896 645.1593)" class="st6" width="9.32" height="12.13"/>
		
			<rect x="484.26" y="316.51" transform="matrix(-1 -1.224647e-16 1.224647e-16 -1 977.8463 645.1593)" class="st6" width="9.32" height="12.13"/>
		
			<rect x="470.86" y="316.51" transform="matrix(-1 -1.224647e-16 1.224647e-16 -1 951.0347 645.1593)" class="st6" width="9.32" height="12.13"/>
		
			<rect x="458.44" y="316.51" transform="matrix(-1 -1.224647e-16 1.224647e-16 -1 926.1913 645.1593)" class="st6" width="9.32" height="12.13"/>
		
			<rect x="445.52" y="316.51" transform="matrix(-1 -1.224647e-16 1.224647e-16 -1 900.364 645.1593)" class="st6" width="9.32" height="12.13"/>
		
			<rect x="496.68" y="332.36" transform="matrix(-1 -1.224647e-16 1.224647e-16 -1 1002.6896 676.8576)" class="st6" width="9.32" height="12.13"/>
		
			<rect x="484.26" y="332.36" transform="matrix(-1 -1.224647e-16 1.224647e-16 -1 977.8463 676.8576)" class="st6" width="9.32" height="12.13"/>
		
			<rect x="470.86" y="332.36" transform="matrix(-1 -1.224647e-16 1.224647e-16 -1 951.0347 676.8576)" class="st6" width="9.32" height="12.13"/>
		
			<rect x="458.44" y="332.36" transform="matrix(-1 -1.224647e-16 1.224647e-16 -1 926.1913 676.8576)" class="st6" width="9.32" height="12.13"/>
		
			<rect x="445.52" y="332.36" transform="matrix(-1 -1.224647e-16 1.224647e-16 -1 900.364 676.8576)" class="st6" width="9.32" height="12.13"/>
		
			<rect x="530.51" y="293.82" transform="matrix(-1 -1.224647e-16 1.224647e-16 -1 1139.8131 717.0666)" class="st9" width="78.79" height="129.43"/>
		
			<rect x="594.17" y="296.92" transform="matrix(-1 -1.224647e-16 1.224647e-16 -1 1198.7744 645.1593)" class="st3" width="10.44" height="51.33"/>
		
			<rect x="579.88" y="296.92" transform="matrix(-1 -1.224647e-16 1.224647e-16 -1 1170.1952 645.1593)" class="st3" width="10.44" height="51.33"/>
		
			<rect x="564.69" y="296.92" transform="matrix(-1 -1.224647e-16 1.224647e-16 -1 1139.8131 645.1593)" class="st3" width="10.44" height="51.33"/>
		
			<rect x="549.56" y="296.92" transform="matrix(-1 -1.224647e-16 1.224647e-16 -1 1109.5498 645.1593)" class="st3" width="10.44" height="51.33"/>
		
			<rect x="594.17" y="354.84" transform="matrix(-1 -1.224647e-16 1.224647e-16 -1 1198.7744 761.005)" class="st3" width="10.44" height="51.33"/>
		
			<rect x="579.88" y="354.84" transform="matrix(-1 -1.224647e-16 1.224647e-16 -1 1170.1952 761.005)" class="st3" width="10.44" height="51.33"/>
		
			<rect x="564.69" y="354.84" transform="matrix(-1 -1.224647e-16 1.224647e-16 -1 1139.8131 761.005)" class="st3" width="10.44" height="51.33"/>
		
			<rect x="549.56" y="354.84" transform="matrix(-1 -1.224647e-16 1.224647e-16 -1 1109.5498 761.005)" class="st3" width="10.44" height="51.33"/>
		
			<rect x="493.85" y="358.53" transform="matrix(-1 -1.224647e-16 1.224647e-16 -1 1063.7559 781.7835)" class="st6" width="76.06" height="64.72"/>
		<g>
			<path class="st3" d="M482.83,375.05c1.11-2.07,2.53-4.05,4.17-5.68c2.11-2.47,4.97-4.34,8.17-4.81c6.93-1,13.18,4.68,16.3,10.95
				c3.14,6.29,4.27,13.57,3.19,20.52c-0.77,4.95-2.76,9.89-6.48,13.24c-0.24,0.22-0.5,0.43-0.76,0.63
				c-2.49,3.64-6.31,5.31-10.73,5.22c-3.31-0.06-7.53-1.91-10.06-4.01c-3.13-2.6-5.45-5.71-6.59-9.64
				C477.69,393.33,478.8,382.56,482.83,375.05z"/>
			<g>
				<path class="st4" d="M497.12,424.97c-0.5,0-0.9-0.4-0.9-0.9v-46.86c0-0.5,0.4-0.9,0.9-0.9s0.9,0.4,0.9,0.9v46.86
					C498.01,424.57,497.61,424.97,497.12,424.97z"/>
			</g>
			<g>
				<path class="st4" d="M497.61,391.4c-0.2,0-0.4-0.07-0.56-0.2c-0.38-0.31-0.44-0.88-0.13-1.26c3.46-4.27,6.79-8.73,9.89-13.28
					c0.28-0.41,0.84-0.51,1.25-0.24c0.41,0.28,0.51,0.84,0.24,1.25c-3.12,4.58-6.48,9.09-9.98,13.39
					C498.13,391.28,497.87,391.4,497.61,391.4z"/>
			</g>
			<g>
				<path class="st4" d="M506.77,394.68c-0.23,0-0.46-0.09-0.63-0.26c-0.35-0.35-0.35-0.92,0-1.27c1.67-1.68,3.27-3.46,4.77-5.29
					c0.31-0.38,0.88-0.44,1.26-0.13c0.38,0.31,0.44,0.88,0.13,1.26c-1.53,1.88-3.18,3.71-4.89,5.43
					C507.23,394.59,507,394.68,506.77,394.68z"/>
			</g>
			<g>
				<path class="st4" d="M497.88,405.16c-0.26,0-0.51-0.11-0.69-0.32c-0.32-0.38-0.27-0.95,0.12-1.26c2.22-1.85,4.26-3.93,6.07-6.2
					c0.31-0.39,0.87-0.45,1.26-0.14c0.39,0.31,0.45,0.87,0.14,1.26c-1.88,2.36-4.01,4.53-6.32,6.46
					C498.28,405.09,498.08,405.16,497.88,405.16z"/>
			</g>
			<g>
				<path class="st4" d="M496.64,383.6c-0.28,0-0.56-0.13-0.73-0.38c-2.08-2.96-4.33-5.86-6.71-8.6c-0.32-0.37-0.28-0.94,0.09-1.26
					c0.37-0.32,0.94-0.28,1.26,0.09c2.42,2.79,4.71,5.74,6.82,8.75c0.28,0.41,0.19,0.96-0.22,1.25
					C497,383.55,496.82,383.6,496.64,383.6z"/>
			</g>
			<g>
				<path class="st4" d="M496.54,402.7c-0.24,0-0.48-0.1-0.66-0.29l-10.89-11.82c-0.34-0.36-0.31-0.93,0.05-1.27
					c0.37-0.33,0.93-0.31,1.27,0.05l10.89,11.82c0.34,0.36,0.31,0.93-0.05,1.27C496.97,402.62,496.75,402.7,496.54,402.7z"/>
			</g>
		</g>
		<g>
			<path class="st4" d="M495.94,412.49c-0.25,0-0.49-0.1-0.67-0.3c-1.81-2.02-3.83-3.86-6.01-5.47c-0.4-0.29-0.48-0.86-0.19-1.25
				s0.85-0.48,1.25-0.19c2.28,1.68,4.4,3.6,6.28,5.72c0.33,0.37,0.3,0.94-0.07,1.27C496.37,412.42,496.16,412.49,495.94,412.49z"/>
		</g>
		<g>
			<path class="st3" d="M472.3,375.4c-2.16-12.95-9.07-24.68-16.78-35.46c-16.22,14.93-22.36,39.28-15.06,59.76
				c1.27,3.57,2.97,7.1,5.7,9.8c7.49,7.39,15.15,3.78,19.82-3.49C471.93,396.75,474.1,386.21,472.3,375.4z"/>
			<g>
				<path class="st4" d="M454.59,428.23c-0.5,0-0.9-0.4-0.9-0.9v-78.49c0-0.5,0.4-0.9,0.9-0.9c0.5,0,0.9,0.4,0.9,0.9v78.49
					C455.49,427.83,455.09,428.23,454.59,428.23z"/>
			</g>
			<g>
				<path class="st4" d="M456.09,371.93c-0.15,0-0.3-0.04-0.44-0.12c-0.43-0.24-0.58-0.79-0.34-1.22c2.78-4.91,5.53-9.92,8.18-14.87
					c0.23-0.44,0.78-0.6,1.21-0.37c0.44,0.23,0.6,0.78,0.37,1.21c-2.65,4.97-5.41,9.98-8.2,14.91
					C456.71,371.76,456.4,371.93,456.09,371.93z"/>
			</g>
			<g>
				<path class="st4" d="M454.16,385.98c-0.24,0-0.48-0.09-0.65-0.28c-4.64-4.92-8.92-10.24-12.74-15.82
					c-0.28-0.41-0.18-0.97,0.23-1.25c0.41-0.28,0.97-0.17,1.25,0.23c3.76,5.5,7.99,10.75,12.56,15.6c0.34,0.36,0.32,0.93-0.04,1.27
					C454.6,385.9,454.38,385.98,454.16,385.98z"/>
			</g>
		</g>
		<g>
			<path class="st6" d="M477.15,418.07c2.73-2.26,5.62-5.22,5.25-8.74c-0.05-0.52-0.21-1.07-0.62-1.38
				c-0.74-0.57-1.79-0.09-2.72-0.18c-1.95-0.19-2.63-2.9-1.79-4.67c0.85-1.76,2.56-2.92,3.85-4.39c1.12-1.28,1.93-2.83,2.34-4.49
				c0.53-2.16-0.19-5.12-2.4-5.36c-1.61-0.17-2.88,1.22-4.07,2.31c-1.19,1.09-3.14,1.95-4.3,0.82c-1-0.97-0.58-2.62-0.18-3.95
				c0.98-3.26,1.41-6.68,1.28-10.08c-0.09-2.37-0.5-4.83-1.9-6.75c-1.39-1.92-4-3.12-6.22-2.28c-2.07,0.79-3.21,3.03-3.69,5.19
				c-1.31,5.89,0.87,11.93,1.54,17.93c0.16,1.42-0.12,3.32-1.53,3.55c-0.99,0.16-1.82-0.67-2.58-1.32
				c-1.85-1.59-4.32-2.46-6.77-2.37c-0.42,0.01-0.86,0.06-1.21,0.3c-0.8,0.53-0.77,1.71-0.48,2.62c1.33,4.21,6.06,6.78,6.98,11.09
				c0.12,0.58,0.15,1.24-0.23,1.69c-0.27,0.33-0.71,0.47-1.13,0.54c-1.74,0.27-3.44-0.57-5.15-0.98c-1.71-0.41-3.91-0.17-4.66,1.43
				c-0.56,1.2-0.02,2.63,0.66,3.76c2.11,3.49,5.58,6,9.31,7.64c3.34,1.48,7.87,3.22,11.58,3.25
				C471.8,423.28,474.64,420.16,477.15,418.07z"/>
			<g>
				<path class="st4" d="M467.7,427.47c-0.5,0-0.9-0.4-0.9-0.9v-47.21c0-0.5,0.4-0.9,0.9-0.9c0.5,0,0.9,0.4,0.9,0.9v47.21
					C468.6,427.07,468.2,427.47,467.7,427.47z"/>
			</g>
			<g>
				<path class="st4" d="M473.97,400.43c-0.24,0-0.47-0.09-0.65-0.27c-0.34-0.36-0.33-0.92,0.02-1.27l5.88-5.66
					c0.36-0.34,0.92-0.33,1.27,0.02c0.34,0.36,0.33,0.92-0.02,1.27l-5.88,5.66C474.42,400.34,474.19,400.43,473.97,400.43z"/>
			</g>
			<g>
				<path class="st4" d="M468.3,405.86c-0.22,0-0.44-0.08-0.61-0.24c-0.36-0.34-0.38-0.91-0.05-1.27l2.9-3.12
					c0.34-0.36,0.91-0.38,1.27-0.05c0.36,0.34,0.38,0.91,0.05,1.27l-2.9,3.12C468.78,405.77,468.54,405.86,468.3,405.86z"/>
			</g>
			<g>
				<path class="st4" d="M468.3,420.58c-0.24,0-0.48-0.1-0.66-0.29c-0.34-0.36-0.31-0.93,0.05-1.27c3.46-3.18,7.02-6.36,10.57-9.43
					c0.37-0.32,0.94-0.28,1.27,0.09c0.32,0.37,0.28,0.94-0.09,1.27c-3.54,3.06-7.08,6.22-10.53,9.39
					C468.73,420.5,468.51,420.58,468.3,420.58z"/>
			</g>
			<g>
				<path class="st4" d="M467.4,413.07c-0.27,0-0.54-0.12-0.72-0.36c-3.29-4.4-6.69-8.83-10.11-13.18
					c-0.31-0.39-0.24-0.95,0.15-1.26c0.39-0.31,0.95-0.24,1.26,0.15c3.43,4.36,6.84,8.8,10.14,13.21c0.3,0.4,0.22,0.96-0.18,1.25
					C467.78,413.01,467.59,413.07,467.4,413.07z"/>
			</g>
		</g>
		<g>
			<path class="st1" d="M304.79,411.7c3.51-2.91,7.23-6.71,6.76-11.25c-0.07-0.67-0.26-1.37-0.79-1.78
				c-0.95-0.73-2.31-0.11-3.5-0.23c-2.5-0.25-3.39-3.74-2.3-6.01c1.09-2.27,3.3-3.75,4.96-5.64c1.45-1.65,2.49-3.65,3.01-5.77
				c0.69-2.78-0.25-6.59-3.09-6.9c-2.07-0.22-3.71,1.57-5.24,2.97c-1.54,1.4-4.05,2.5-5.54,1.06c-1.28-1.25-0.75-3.37-0.23-5.08
				c1.26-4.19,1.82-8.6,1.64-12.97c-0.12-3.05-0.65-6.22-2.44-8.69c-1.79-2.47-5.14-4.01-8-2.93c-2.66,1.01-4.13,3.9-4.75,6.68
				c-1.68,7.58,1.12,15.35,1.98,23.07c0.2,1.82-0.15,4.27-1.96,4.56c-1.27,0.21-2.34-0.86-3.32-1.7c-2.39-2.05-5.56-3.16-8.71-3.05
				c-0.54,0.02-1.1,0.08-1.55,0.38c-1.02,0.68-0.99,2.2-0.62,3.37c1.71,5.41,7.8,8.72,8.99,14.27c0.16,0.74,0.2,1.6-0.29,2.18
				c-0.35,0.42-0.91,0.61-1.45,0.69c-2.24,0.35-4.42-0.73-6.63-1.26c-2.21-0.53-5.04-0.22-6,1.84c-0.72,1.55-0.03,3.38,0.85,4.84
				c2.71,4.49,7.18,7.72,11.98,9.84c4.3,1.9,10.12,4.14,14.9,4.18C297.91,418.39,301.56,414.38,304.79,411.7z"/>
			<g>
				<path class="st4" d="M291.93,426.52c-0.5,0-0.9-0.4-0.9-0.9v-68.11c0-0.5,0.4-0.9,0.9-0.9c0.5,0,0.9,0.4,0.9,0.9v68.11
					C292.82,426.12,292.42,426.52,291.93,426.52z"/>
			</g>
			<g>
				<path class="st4" d="M292.4,396.85c-0.22,0-0.44-0.08-0.61-0.24c-0.36-0.34-0.38-0.9-0.05-1.27c5.76-6.2,11.75-12.35,17.8-18.27
					c0.35-0.35,0.92-0.34,1.27,0.01c0.35,0.35,0.34,0.92-0.01,1.27c-6.03,5.9-12,12.03-17.74,18.21
					C292.88,396.76,292.64,396.85,292.4,396.85z"/>
			</g>
			<g>
				<path class="st4" d="M292.4,415.63c-0.25,0-0.5-0.1-0.68-0.31c-0.33-0.37-0.29-0.94,0.09-1.27c5.29-4.61,10.77-9.16,16.27-13.52
					c0.39-0.31,0.95-0.24,1.26,0.15c0.31,0.39,0.24,0.95-0.15,1.26c-5.48,4.34-10.94,8.87-16.21,13.46
					C292.82,415.55,292.61,415.63,292.4,415.63z"/>
			</g>
			<g>
				<path class="st4" d="M291.28,400.55c-0.24,0-0.48-0.1-0.66-0.29c-5.15-5.62-10.45-11.23-15.78-16.66
					c-0.35-0.35-0.34-0.92,0.01-1.27c0.35-0.35,0.92-0.34,1.27,0.01c5.34,5.45,10.66,11.07,15.82,16.71
					c0.33,0.37,0.31,0.93-0.06,1.27C291.71,400.47,291.5,400.55,291.28,400.55z"/>
			</g>
		</g>
		<g>
			<path class="st3" d="M308.88,389.18c0.91-1.7,2.07-3.32,3.41-4.65c1.73-2.02,4.07-3.55,6.69-3.93
				c5.67-0.82,10.79,3.83,13.34,8.96c2.57,5.15,3.5,11.11,2.61,16.8c-0.63,4.05-2.26,8.09-5.3,10.84c-0.2,0.18-0.41,0.35-0.62,0.52
				c-2.03,2.98-5.17,4.34-8.78,4.27c-2.71-0.05-6.16-1.56-8.23-3.28c-2.56-2.13-4.46-4.67-5.4-7.89
				C304.67,404.14,305.58,395.32,308.88,389.18z"/>
			<g>
				<path class="st4" d="M320.63,429.32c-0.5,0-0.9-0.4-0.9-0.9V387c0-0.5,0.4-0.9,0.9-0.9c0.5,0,0.9,0.4,0.9,0.9v41.43
					C321.52,428.92,321.12,429.32,320.63,429.32z"/>
			</g>
			<g>
				<path class="st4" d="M322.33,406.56c-0.21,0-0.42-0.07-0.58-0.22c-0.38-0.32-0.42-0.89-0.09-1.27l9.97-11.56
					c0.32-0.38,0.89-0.42,1.26-0.09c0.38,0.32,0.42,0.89,0.09,1.27l-9.97,11.56C322.83,406.45,322.58,406.56,322.33,406.56z"/>
			</g>
			<g>
				<path class="st4" d="M328.68,410.18c-0.2,0-0.4-0.07-0.56-0.2c-0.38-0.31-0.44-0.88-0.13-1.26c1.36-1.68,2.8-3.35,4.25-4.95
					c0.33-0.37,0.9-0.39,1.27-0.06c0.37,0.33,0.39,0.9,0.06,1.27c-1.44,1.58-2.84,3.22-4.19,4.88
					C329.2,410.06,328.94,410.18,328.68,410.18z"/>
			</g>
			<g>
				<path class="st4" d="M320.97,419.42c-0.22,0-0.44-0.08-0.62-0.25c-0.36-0.34-0.38-0.91-0.03-1.27c1.8-1.91,3.57-3.89,5.25-5.9
					c0.32-0.38,0.88-0.43,1.26-0.11c0.38,0.32,0.43,0.88,0.11,1.26c-1.7,2.03-3.49,4.04-5.32,5.98
					C321.45,419.33,321.21,419.42,320.97,419.42z"/>
			</g>
			<g>
				<path class="st4" d="M320.51,401.32c-0.27,0-0.54-0.12-0.71-0.35c-2.37-3.11-4.68-6.31-6.87-9.51
					c-0.28-0.41-0.18-0.97,0.23-1.25c0.41-0.28,0.97-0.18,1.25,0.23c2.18,3.18,4.47,6.36,6.82,9.44c0.3,0.39,0.22,0.96-0.17,1.26
					C320.89,401.26,320.7,401.32,320.51,401.32z"/>
			</g>
			<g>
				<path class="st4" d="M320.26,414.75c-0.25,0-0.49-0.1-0.67-0.3c-2.11-2.35-4.28-4.68-6.45-6.95c-0.34-0.36-0.33-0.92,0.03-1.27
					c0.36-0.34,0.92-0.33,1.27,0.03c2.19,2.28,4.37,4.63,6.49,6.99c0.33,0.37,0.3,0.94-0.07,1.27
					C320.68,414.67,320.47,414.75,320.26,414.75z"/>
			</g>
		</g>
		<g>
			<path class="st6" d="M604.16,375.05c1.11-2.07,2.53-4.05,4.17-5.68c2.11-2.47,4.97-4.34,8.17-4.81c6.93-1,13.18,4.68,16.3,10.95
				c3.14,6.29,4.27,13.57,3.19,20.52c-0.77,4.95-2.76,9.89-6.48,13.24c-0.24,0.22-0.5,0.43-0.76,0.63
				c-2.49,3.64-6.31,5.31-10.73,5.22c-3.31-0.06-7.53-1.91-10.06-4.01c-3.13-2.6-5.45-5.71-6.59-9.64
				C599.02,393.33,600.12,382.56,604.16,375.05z"/>
			<g>
				<path class="st4" d="M618.44,424.97c-0.5,0-0.9-0.4-0.9-0.9v-46.86c0-0.5,0.4-0.9,0.9-0.9c0.5,0,0.9,0.4,0.9,0.9v46.86
					C619.34,424.57,618.94,424.97,618.44,424.97z"/>
			</g>
			<g>
				<path class="st4" d="M618.94,391.4c-0.2,0-0.4-0.07-0.56-0.2c-0.38-0.31-0.44-0.88-0.13-1.26c3.46-4.27,6.79-8.74,9.89-13.28
					c0.28-0.41,0.84-0.51,1.25-0.24c0.41,0.28,0.51,0.84,0.24,1.25c-3.12,4.58-6.48,9.09-9.98,13.39
					C619.46,391.28,619.2,391.4,618.94,391.4z"/>
			</g>
			<g>
				<path class="st4" d="M628.1,394.68c-0.23,0-0.46-0.09-0.63-0.26c-0.35-0.35-0.35-0.92,0-1.27c1.66-1.67,3.27-3.45,4.77-5.29
					c0.31-0.38,0.88-0.44,1.26-0.13c0.38,0.31,0.44,0.88,0.13,1.26c-1.54,1.89-3.18,3.71-4.89,5.43
					C628.56,394.59,628.33,394.68,628.1,394.68z"/>
			</g>
			<g>
				<path class="st4" d="M619.2,405.16c-0.26,0-0.51-0.11-0.69-0.32c-0.32-0.38-0.27-0.95,0.12-1.26c2.22-1.85,4.26-3.93,6.07-6.2
					c0.31-0.39,0.87-0.45,1.26-0.14c0.39,0.31,0.45,0.87,0.14,1.26c-1.88,2.36-4.01,4.53-6.32,6.46
					C619.61,405.09,619.4,405.16,619.2,405.16z"/>
			</g>
			<g>
				<path class="st4" d="M617.97,383.6c-0.28,0-0.56-0.13-0.73-0.38c-2.08-2.96-4.33-5.86-6.71-8.6c-0.32-0.37-0.28-0.94,0.09-1.26
					c0.37-0.32,0.94-0.28,1.26,0.09c2.42,2.79,4.71,5.74,6.82,8.75c0.28,0.41,0.19,0.96-0.22,1.25
					C618.33,383.55,618.15,383.6,617.97,383.6z"/>
			</g>
			<g>
				<path class="st4" d="M617.86,402.7c-0.24,0-0.48-0.1-0.66-0.29l-10.89-11.82c-0.34-0.36-0.31-0.93,0.05-1.27
					c0.37-0.33,0.93-0.31,1.27,0.05l10.89,11.82c0.34,0.36,0.31,0.93-0.05,1.27C618.3,402.62,618.08,402.7,617.86,402.7z"/>
			</g>
		</g>
	</g>
	<g>
		<defs>
			<path id="SVGID_2_" d="M164.63,461.17c3.52,1.07,7.2,0.73,11.46,0.73c21.51-0.03,43.02-0.06,64.53-0.09
				c71.19-0.09,142.38-0.19,213.56-0.28c56.58-0.08,113.16-0.15,169.74-0.23c4.8-0.01,9.59-0.01,14.39-0.02
				c8.08-0.01,18.74-26.78,21.38-32.16c9.74-19.85,17.94-40.49,25.39-61.3c7.3-20.4,13.57-41.04,18.39-62.16
				c6.46-28.32,14.35-56.07,3.37-84.77c-9.14-23.89-33.37-43.41-58.74-40.15c-21.44,2.76-55.75,29.48-70.18-2
				c-5.41-11.81-4.07-25.47-6.13-38.29c-4.39-27.2-24.94-50.3-50.17-61.38C496.38,67.99,467.2,68,440.62,75.28
				c-16.63,4.55-32.88,12.11-44.8,24.57c-8.82,9.22-14.89,20.7-22.91,30.63c-8.02,9.93-19.06,18.7-31.82,19.04
				c-18.74,0.51-32.52-16.33-47.41-27.73c-24.08-18.43-57.49-23.94-86.21-14.21c-12.79,4.33-24.69,11.56-33.86,21.46
				c-15.09,16.28-22.01,38.97-22.24,61.16c-0.23,22.19,5.74,44.04,13.74,64.74c5.14,13.31,11.26,26.99,9.97,41.19
				c-0.23,2.58-0.76,5.24-2.31,7.31c-3.13,4.17-9.12,4.55-14.33,4.64c-17.11,0.28-35.26,1.72-49.14,11.73
				c-23.95,17.27-25.28,54.4-10.93,80.2c7.33,13.18,17.8,24.23,29.3,33.85c10.02,8.38,23.56,20.76,34.73,26.4
				C163.14,460.64,163.88,460.94,164.63,461.17z"/>
		</defs>
		<clipPath id="SVGID_3_">
			<use xlink:href="#SVGID_2_"  style="overflow:visible;"/>
		</clipPath>
		<polygon class="st10" points="186.23,461.94 655.6,461.5 663.37,421.38 274.59,421.38 		"/>
		<linearGradient id="SVGID_4_" gradientUnits="userSpaceOnUse" x1="310.4279" y1="439.2981" x2="611.1674" y2="439.2981">
			<stop  offset="0" style="stop-color:#030078;stop-opacity:0.1"/>
			<stop  offset="0.1461" style="stop-color:#2C2993;stop-opacity:0.2315"/>
			<stop  offset="0.3618" style="stop-color:#6260B6;stop-opacity:0.4256"/>
			<stop  offset="0.5626" style="stop-color:#8C8BD2;stop-opacity:0.6063"/>
			<stop  offset="0.7422" style="stop-color:#ABAAE6;stop-opacity:0.768"/>
			<stop  offset="0.894" style="stop-color:#BDBDF3;stop-opacity:0.9046"/>
			<stop  offset="1" style="stop-color:#C4C4F7"/>
		</linearGradient>
		<path class="st11" d="M607.8,434.32c-6.09-2.95-12.83-3.15-19.55-3.91c-29.67-3.3-59.84-2.95-89.65-2.87
			c-14.28,0.04-28.57-0.2-42.83,0.67c-12.05,0.74-24.9,1.91-36.56-1.95c-0.51-0.17-0.52-0.88,0-1.05c0.78-0.24,1.56-0.45,2.36-0.63
			H317c-0.74,0.63-1.19,1.34-1.04,2.09c0.35,1.75,3.85,2.63,5.18,3.07c4.31,1.4,8.96,1.87,13.18,3.54c0.39,0.16,0.52,0.57,0.24,0.91
			c-1.67,1.98-5.7,2.5-8.01,3.12c-4.1,1.1-8.29,2.01-12.26,3.51c-2.14,0.8-5.87,2.31-2.49,4.27c2.38,1.38,5.3,2.08,7.92,2.81
			c3.78,1.05,7.64,1.8,11.53,2.35c16.29,2.32,33.1,2.13,49.53,2.48c17.98,0.38,35.95,0.52,53.92,0.71
			c6.08,0.06,12.15,0.64,18.23,0.56c6.02-0.07,12.7-0.47,17.98-3.69c0.33-0.2-11.29-4.67,0.15-5.14c6.55-0.27,13.13-0.23,19.68-0.25
			c13.13-0.04,26.27,0.14,39.4,0.16c25.81,0.04,51.72-0.51,77.28-4.4c1.44-0.22,3.14-0.65,3.63-2.03
			C611.71,436.79,609.59,435.19,607.8,434.32z"/>
	</g>
	<g>
		<path class="st5" d="M489.6,374.19c1.16,1.93,2.19,4.29,1.34,6.38c-1.03,2.52-4.21,3.28-6.93,3.31c-2.72,0.03-5.69-0.25-7.91,1.32
			c-2.53,1.79-3.08,5.48-2.11,8.42c0.97,2.94,3.13,5.32,5.22,7.6c2.32,2.52,4.81,5.79,7.49,9.13c4.77,5.96,10.12,12.15,16.08,14.8
			h21.34c3.42-1.24,6.5-3.2,8.8-6.08c2.86-3.58,4.43-7.99,5.95-12.31c1.29-3.68,2.59-7.36,3.88-11.05c0.67-1.9,1.28-4.2,0.01-5.77
			c-1.66-2.06-5.02-1.07-7.13,0.53s-4.2,3.77-6.84,3.63c-2.46-0.13-4.39-2.38-4.95-4.78c-0.56-2.4-0.06-4.9,0.49-7.3
			c2.11-9.14,4.97-18.11,8.55-26.78c1.23-2.97,2.57-6.05,2.37-9.26c-0.2-3.21-2.51-6.55-5.72-6.68c-3.15-0.13-5.53,2.65-7.8,4.84
			c-2.27,2.19-5.96,4.02-8.39,2c-1.42-1.18-1.74-3.2-1.93-5.03c-2.21-20.87-1.38-42.44-8.52-62.17c-1.52-4.21-3.48-8.41-6.71-11.51
			c-3.24-3.1-7.99-4.93-12.3-3.68c-7.14,2.07-9.66,10.88-9.92,18.31c-0.44,12.41,1.73,27.06,6.7,38.27
			c1.52,3.44,2.14,8.05-0.75,10.45c-2.87,2.39-7.86,1.35-10.1,4.34c-1.04,1.39-1.12,3.27-0.95,5
			C470.15,353.54,482.66,362.64,489.6,374.19z"/>
		<g>
			<path class="st12" d="M506.1,374.04c-4.96-9.01-5.2-19.54-5.42-29.73c-0.14-6.37-0.28-12.95-1.57-19.15
				c-1.42-6.85-4.28-13.4-7.05-19.75c-1.32-3.01-2.68-6.13-3.87-9.25c-4.71-12.32-5.43-22.34-2.2-30.63l0.84,0.33
				c-3.15,8.08-2.43,17.89,2.2,29.99c1.19,3.1,2.54,6.21,3.85,9.21c2.79,6.38,5.67,12.98,7.11,19.92c1.3,6.28,1.45,12.91,1.59,19.31
				c0.23,10.54,0.45,20.5,5.31,29.32L506.1,374.04z"/>
		</g>
	</g>
	<g>
		<path class="st1" d="M457.45,388.49c3.41,8.28-2.4,18.04,0.38,26.56c1.06,3.24,3.3,5.95,6.08,7.98h24.07
			c0.49-0.92,0.9-1.96,1.23-3.17c1.1-4.04,0.8-8.33,0.31-12.49c-0.61-5.14-1.6-10.45-4.69-14.6c-1.9-2.55-4.49-4.52-6.46-7.02
			c-3.58-4.54-4.86-10.52-4.98-16.3c-0.12-5.78,0.8-11.53,1.12-17.3c0.27-4.85-0.2-10.4-4-13.43c-3.26-2.6-8.05-2.54-11.31-5.14
			c-4.08-3.26-4.26-9.25-4.57-14.46c-0.49-8.46-2.21-16.85-5.09-24.82c-1.2-3.33-3.22-7.08-6.74-7.47
			c-2.38-0.27-4.62,1.17-6.33,2.85c-4.15,4.07-6.45,9.96-6.14,15.77c0.63,11.78,11.17,21.78,10.07,33.52
			c-0.32,3.45-1.65,6.71-2.56,10.04c-2.15,7.91-1.71,17.05,3.44,23.42C446.11,378.4,454.52,381.4,457.45,388.49z"/>
		<g>
			<path class="st2" d="M482.36,413.57l-0.62-0.04c0.34-5.05-4.01-10.02-7.5-14.01c-0.39-0.44-0.77-0.88-1.13-1.3
				c-7.68-8.92-10.32-21.06-11.89-31.75c-0.28-1.94-0.55-3.9-0.81-5.85c-1.24-9.24-2.52-18.8-6.34-27.38
				c-1.9-4.27-4.43-8.3-6.88-12.2c-1.49-2.38-3.04-4.84-4.43-7.33c-4.57-8.2-6.36-15.31-5.48-21.74l0.62,0.08
				c-0.86,6.28,0.91,13.27,5.41,21.35c1.38,2.48,2.92,4.93,4.41,7.31c2.46,3.92,5.01,7.98,6.92,12.28
				c3.85,8.66,5.14,18.26,6.39,27.55c0.26,1.95,0.52,3.9,0.81,5.85c1.55,10.6,4.17,22.63,11.75,31.43c0.36,0.42,0.74,0.85,1.13,1.3
				C478.28,403.19,482.72,408.26,482.36,413.57z"/>
		</g>
		<g>
			<path class="st2" d="M465.67,385.27c-0.36-1.08-0.66-2.09-0.92-2.98c-0.77-2.62-1.32-4.52-2.76-5.93
				c-1.56-1.53-3.53-2.61-5.44-3.66c-0.54-0.29-1.08-0.59-1.61-0.89c-2.21-1.27-4.91-3.1-6.14-5.94c-0.59-1.36-0.8-2.85-1-4.3
				c-0.27-1.92-0.52-3.73-1.58-5.21c-0.88-1.23-2.27-2.12-3.62-2.97c-1.92-1.22-3.9-2.49-4.38-4.75l0.61-0.13
				c0.43,2,2.21,3.15,4.1,4.35c1.39,0.89,2.84,1.81,3.79,3.14c1.15,1.6,1.43,3.58,1.7,5.49c0.2,1.41,0.4,2.86,0.96,4.14
				c1.16,2.67,3.75,4.42,5.88,5.65c0.53,0.3,1.06,0.6,1.6,0.89c1.95,1.07,3.96,2.17,5.58,3.76c1.56,1.53,2.16,3.59,2.92,6.2
				c0.27,0.93,0.55,1.9,0.91,2.96L465.67,385.27z"/>
		</g>
		<g>
			<path class="st2" d="M462.05,371.6l-0.1-0.78c-0.41-3.15-0.96-7.47,0.31-10.25c0.33-0.72,0.75-1.39,1.16-2.04
				c0.47-0.75,0.96-1.54,1.29-2.36c1.04-2.68,0.35-5.71-0.33-8.64c-0.74-3.19-1.5-6.48-0.05-9.41l0.56,0.28
				c-1.35,2.73-0.64,5.77,0.1,8.99c0.7,3.02,1.42,6.14,0.3,9c-0.34,0.88-0.85,1.69-1.34,2.47c-0.4,0.63-0.81,1.29-1.12,1.97
				c-1.2,2.61-0.65,6.83-0.25,9.91l0.1,0.78L462.05,371.6z"/>
		</g>
		<g>
			<path class="st2" d="M451.75,330c-2.08-3.89-4.25-7.51-7.82-9.07c-0.48-0.21-1-0.38-1.5-0.55c-0.78-0.26-1.58-0.53-2.31-0.95
				c-2.21-1.28-3.44-3.72-4.43-5.69l-3.22-6.4l0.56-0.28l3.22,6.4c0.95,1.89,2.14,4.25,4.19,5.43c0.68,0.39,1.42,0.64,2.2,0.9
				c0.51,0.17,1.04,0.35,1.55,0.57c3.75,1.64,5.98,5.35,8.12,9.35L451.75,330z"/>
		</g>
		<g>
			<path class="st2" d="M483.42,422.8c-0.37-1.33-0.52-2.75-0.66-4.13c-0.26-2.48-0.5-4.83-1.95-6.66c-1.6-2.01-4.11-2.72-6.77-3.48
				c-2.28-0.65-4.64-1.31-6.42-2.88c-0.89-0.79-1.58-1.76-2.16-2.62l-0.08-0.12c-1.62-2.39-3.45-5.09-6.22-5.34l0.05-0.62
				c3.06,0.27,4.98,3.1,6.68,5.61l0.08,0.12c0.56,0.82,1.22,1.76,2.06,2.5c1.67,1.47,3.96,2.12,6.18,2.75
				c2.64,0.75,5.37,1.52,7.09,3.69c1.57,1.97,1.83,4.52,2.09,6.98c0.14,1.35,0.28,2.74,0.64,4.02L483.42,422.8z"/>
		</g>
	</g>
	<g>
		<linearGradient id="SVGID_5_" gradientUnits="userSpaceOnUse" x1="525.0021" y1="431.884" x2="528.1401" y2="332.3621">
			<stop  offset="0" style="stop-color:#FFBBFF;stop-opacity:0.4"/>
			<stop  offset="0.0532" style="stop-color:#FFDEED;stop-opacity:0.713"/>
			<stop  offset="0.2045" style="stop-color:#F1D1E6"/>
			<stop  offset="0.4247" style="stop-color:#A493C5"/>
			<stop  offset="0.7746" style="stop-color:#2F3593"/>
			<stop  offset="0.9297" style="stop-color:#000F7F"/>
		</linearGradient>
		<path class="st13" d="M506.53,424.15h30.15c2.09-2.28,3.97-4.76,5.57-7.4c1.28-2.11,2.42-4.46,2.25-6.91
			c-0.03-0.48-0.14-1.01-0.54-1.3c-0.38-0.28-0.9-0.23-1.36-0.18c-2.09,0.25-4.17,0.5-6.26,0.76c1.64-8.12,8.06-14.26,13.82-20.21
			c1.41-1.46,2.85-3.03,3.38-4.99c0.52-1.96-0.22-4.42-2.12-5.14c-3.26-1.24-7.42,3.07-9.97,0.7c-0.66-0.61-0.94-1.52-1.11-2.4
			c-1.01-5.2,1.04-10.43,2.7-15.46c2.81-8.54,4.54-17.43,5.15-26.4c0.18-2.67,0.25-5.43-0.73-7.92c-0.98-2.49-3.27-4.64-5.95-4.66
			c-1.94-0.02-3.72,1.05-5.2,2.3c-8.43,7.08-9.74,19.4-15.24,28.94c-0.74,1.28-1.99,2.68-3.4,2.26c-0.89-0.27-1.41-1.19-2.15-1.76
			c-1.71-1.32-4.38-0.45-5.7,1.26c-1.32,1.71-1.63,3.98-1.85,6.13c-0.56,5.63-0.76,11.35,0.12,16.94c0.36,2.28,0.9,4.59,0.63,6.89
			c-0.27,2.3-1.55,4.66-3.74,5.41c-1.67,0.57-3.8,0.24-4.92,1.6c-0.5,0.6-0.66,1.4-0.78,2.17c-0.87,5.62-0.24,11.46,1.81,16.77
			C502.71,415.77,505.25,419.88,506.53,424.15z"/>
		<g>
			<path class="st2" d="M520.48,424.15c5.67-11.22,7.12-24.52,7.76-37.42l0.03-0.57c0.16-3.27,0.33-6.66,1.11-9.87
				c0.34-1.38,0.8-2.76,1.25-4.09c0.42-1.26,0.86-2.56,1.19-3.88c1.24-4.86,1.14-9.97,1.05-14.92c-0.03-1.6-0.06-3.25-0.05-4.86
				c0.07-8.48,1.77-14.34,5.35-18.45c0.54-0.62,1.16-1.24,1.75-1.83c1.76-1.76,3.58-3.59,4.01-6.06l-0.5-0.09
				c-0.4,2.31-2.16,4.08-3.87,5.79c-0.6,0.6-1.22,1.22-1.77,1.86c-3.66,4.2-5.4,10.17-5.47,18.77c-0.01,1.62,0.02,3.28,0.05,4.88
				c0.09,4.91,0.19,9.99-1.03,14.78c-0.33,1.3-0.76,2.59-1.18,3.84c-0.45,1.34-0.91,2.73-1.26,4.13c-0.8,3.26-0.97,6.67-1.13,9.97
				l-0.03,0.57c-0.64,12.93-2.09,26.27-7.82,37.45H520.48z"/>
		</g>
		<g>
			<path class="st2" d="M526.32,407.07l-0.48-0.15c0.16-0.51,0.31-1.02,0.47-1.53c1.47-4.88,2.86-9.48,6.23-13.34
				c2.12-2.42,4.77-4.29,7.34-6.11l4.84-3.41l0.29,0.41l-4.84,3.41c-2.54,1.8-5.17,3.65-7.25,6.03c-3.3,3.78-4.67,8.33-6.13,13.15
				C526.64,406.04,526.48,406.56,526.32,407.07z"/>
		</g>
		<g>
			<path class="st2" d="M532.62,363.83l-0.5-0.08c0.85-5.28,2.01-9.68,3.35-14.77l0.34-1.28c0.25-0.93,0.55-2.09,1.18-3.05
				c0.43-0.66,1-1.22,1.55-1.76c0.4-0.39,0.81-0.79,1.16-1.22c0.77-0.96,1.26-2.39,0.6-3.4l0.43-0.28c0.79,1.22,0.25,2.88-0.63,3.99
				c-0.37,0.46-0.79,0.87-1.2,1.27c-0.55,0.54-1.08,1.05-1.48,1.67c-0.58,0.9-0.88,2.01-1.11,2.9l-0.34,1.28
				C534.62,354.19,533.46,358.57,532.62,363.83z"/>
		</g>
		<g>
			<path class="st2" d="M522.45,419.81l-0.5-0.1c0.49-2.39,0.93-8.28,0-10.57c-0.6-1.48-1.64-2.76-2.64-4
				c-0.39-0.49-0.8-0.99-1.18-1.5c-1.77-2.39-2.41-4.57-1.91-6.5l0.49,0.13c-0.57,2.21,0.68,4.52,1.83,6.08
				c0.37,0.5,0.78,1,1.17,1.48c1.03,1.27,2.09,2.58,2.72,4.13C523.38,411.33,522.94,417.37,522.45,419.81z"/>
		</g>
	</g>
	<g>
		<path class="st1" d="M409.43,423.82h42.51c0.36-1.3,0.49-2.71,0.51-4.05c0.23-14.78-7.96-24.23-17.39-34.24
			c-3.72-3.95-3.39,1.2-4.71,3.5c-1.06,1.83-3.78,2.04-5.63,1.02c-1.85-1.02-3.04-2.9-4.19-4.68c-5.24-8.16-11.11-15.9-17.55-23.15
			c-1.75-1.98-3.63-3.97-6.06-5c-2.43-1.03-5.58-0.83-7.33,1.15c-2.09,2.38-1.76,6.64-4.58,8.07c-1.47,0.74-3.24,0.36-4.79-0.19
			c-5.51-1.96-10.13-5.8-15.39-8.35c-5.26-2.55-11.98-3.61-16.66-0.11c-4.22,3.16-5.41,9.33-3.75,14.34
			c1.66,5.01,5.65,8.95,10.09,11.79c4.44,2.85,9.4,4.77,14.14,7.08c3.16,1.54,6.68,3.99,6.52,7.5c-0.17,3.66-4.25,5.91-5.38,9.4
			c-1.05,3.25,0.83,6.89,3.62,8.87c2.79,1.97,6.29,2.62,9.68,3.04c4.16,0.51,8.36,0.75,12.55,0.72c2.93-0.02,7.83-1.4,10.56-0.33
			C408.05,420.93,408.95,422.24,409.43,423.82z"/>
		<g>
			<path class="st2" d="M407.02,410.2c-3.92-9.18-8.79-20.61-17.99-27.17c-4.23-3.01-9.22-4.88-14.04-6.69
				c-2.36-0.89-4.8-1.8-7.13-2.84c-7.05-3.14-13.4-7.51-18.87-12.96l0.57-0.57c5.39,5.39,11.66,9.69,18.62,12.8
				c2.31,1.03,4.74,1.94,7.08,2.82c4.87,1.83,9.91,3.72,14.23,6.79c9.39,6.68,14.31,18.23,18.27,27.51L407.02,410.2z"/>
		</g>
		<g>
			<path class="st2" d="M402.05,399.33c-1.45-4.46-5.3-16.32-10.12-20.44c-0.34-0.29-0.69-0.56-1.04-0.84
				c-0.79-0.62-1.61-1.27-2.29-2.07c-1.16-1.36-1.82-3.1-2.4-4.63l-2.62-6.88l0.76-0.29l2.62,6.88c0.59,1.54,1.2,3.14,2.26,4.39
				c0.62,0.73,1.38,1.33,2.17,1.96c0.36,0.28,0.72,0.56,1.06,0.86c4.43,3.78,7.87,13.11,10.37,20.8L402.05,399.33z"/>
		</g>
		<g>
			<path class="st2" d="M375.72,376.62c-3.54-1.48-9.01-1.05-13-0.73l-0.41,0.03c-5.98,0.48-12.23-1.23-17.14-4.68l0.47-0.66
				c4.76,3.34,10.81,5,16.6,4.54l0.41-0.03c4.08-0.32,9.66-0.77,13.38,0.79L375.72,376.62z"/>
		</g>
		<g>
			<path class="st2" d="M408.52,412.01c-1.14-2.35-4.39-2.84-7.1-2.99l-5.56-0.32c-1.84-0.11-3.74-0.22-5.6-0.11
				c-0.93,0.05-1.87,0.16-2.79,0.27c-1.52,0.17-3.09,0.35-4.66,0.29c-3.56-0.14-7.02-1.53-10.07-2.76l0.3-0.75
				c3.14,1.26,6.38,2.57,9.8,2.71c1.51,0.06,3.05-0.12,4.53-0.29c0.93-0.11,1.88-0.22,2.83-0.27c1.91-0.11,3.83,0,5.7,0.11
				l5.56,0.32c2.93,0.17,6.46,0.72,7.78,3.45L408.52,412.01z"/>
		</g>
	</g>
	<g>
		<path class="st14" d="M362,192.42c0.12-2.61,0.11-5.23-0.1-7.87c3.88,0.02,7.73-0.65,11.54-1.32c1.25-0.22,3.35-1.11,4.31-0.12
			c0.91,0.94,0.87,4.88,1.05,6.19c1.17,8.38,1.54,16.84,2.11,25.28c0.7,10.38,1.66,21.13-1.87,30.93c-1.02,2.84-2.46,5.62-4.72,7.63
			c-2.26,2.01-5.45,3.14-8.38,2.38c-3.97-1.03-6.38-5.13-7.37-9.11c-0.9-3.6-0.99-7.34-0.96-11.05c0.07-8.32,0.78-16.63,2.12-24.84
			C360.73,204.47,361.73,198.48,362,192.42z"/>
		<path class="st14" d="M373.39,138.98c0.05-0.16,5.32,0.45,10.63,0.45c-0.06,0.76-2.84,40.69-4.7,49.16
			c-0.58,2.63-1.23,5.33-2.79,7.53c-5.78,8.13-12.86-0.31-14.18-6.88c-0.85-4.22-0.39-8.58,0.15-12.84
			c1.11-8.7,9.97-33.78,10.86-37.41C373.37,138.99,373.38,138.99,373.39,138.98z"/>
		<path class="st14" d="M389.86,124.38c0.33-0.96,0.55-2.03-0.29-2.6c-1.26,1.5-2.25,4.98-3.21,6.85c-0.2,0.39-0.8,0.18-0.71-0.25
			c0.7-3.34,4.5-14.08,2.84-14.65c-0.35-0.12-0.46,0.53-0.57,0.86l-4.26,13.04c-0.01,0.04-0.07,0.02-0.06-0.02l2.96-12.74
			c0.09-0.39,0.18-0.8,0.08-1.19c-0.1-0.39-0.46-0.74-0.86-0.69c-2.06,4.31-2.7,9.3-4.84,13.56c-0.08,0.16-0.33,0.07-0.29-0.1
			c0.8-3.93,1.99-7.12,2.59-10.8c0.14-0.89,0.09-2.05-0.75-2.37c-0.7-0.01-1.29,2.51-1.44,2.96c-0.7,2.14-1.28,4.31-1.89,6.47
			c-0.26,0.94-0.53,1.88-0.8,2.81c-0.13,0.45-0.26,0.9-0.4,1.35c-0.1,0.32-0.19,1.4-0.46,1.59c-0.8-0.97-2.01-7.13-2.58-8.55
			c-0.12-0.29-0.39-0.51-0.7-0.53c-1.43-0.1-0.48,6.88-0.22,8.49c0.54,3.42,0.04,6.92-0.67,10.31c-0.45,2.11-0.97,4.38,0.03,6.35
			c0.77,1.52,2.87,2.72,4.57,2.66c4.06-0.15,5.19-5.46,6.5-8.59C386.39,133.92,388.2,129.18,389.86,124.38z"/>
		<path class="st15" d="M369.8,221.34c-3.77,1.18-9.17,1.93-13.13,2.28c-0.31,3.87,0.43,19.51,1.33,23.1
			c0.99,3.98,3.99,7.76,7.96,8.79c2.93,0.76,7.04-1.21,9.3-3.22c2.26-2.01,3.76-4.86,4.78-7.7c3.34-9.27,2.27-18.55,1.59-28.42
			C378.16,218.43,373.69,220.12,369.8,221.34z"/>
		<path class="st16" d="M376.07,184c-0.38,3.14-0.39,6.33-0.02,9.47c0.4,0,0.81,0.08,1.18,0.23c0.2-2.49,0.91-4.94,2.08-7.14
			c1.22-2.31,2.94-4.35,3.94-6.77c0.47-1.14,0.77-2.43,0.41-3.61c-1.05-3.4-3.89-1.53-5.18,0.4
			C377.01,178.75,376.38,181.42,376.07,184z"/>
		<path class="st17" d="M421.97,316.75c-4.02-7.2-12.67-11.51-20.84-10.37l-42.15,4.12c-16.74,1.65-33.65,3.33-49.61,8.66
			c-2.5,0.84-5.26,2.03-6.15,4.51c-1.05,2.91,1.03,5.99,3.29,8.11c6.25,5.86,14.55,8.96,22.72,11.53
			c10.08,3.18,20.33,5.79,30.7,7.81c16.26,3.18,33.52,4.84,49.07-0.89c5.09-1.87,10.11-4.72,12.91-9.35
			c1.52-2.52,2.3-5.43,2.68-8.34C425.28,327.16,424.61,321.49,421.97,316.75z"/>
		<path class="st16" d="M421.97,316.75c-4.02-7.2-12.67-11.51-20.84-10.37c0,0-55.35,3.3-61.46,4.09c0.67,2.12,2.18,6.29,2.68,8.46
			c1.11,4.79,1.94,9.66,2.6,14.52c0.66,4.86,1.67,15.68,1.89,20.57c4.55,1.13,46.61,1.94,62.16-3.78
			c5.09-1.87,10.11-4.72,12.91-9.35c1.52-2.52,2.3-5.43,2.68-8.34C425.28,327.16,424.61,321.49,421.97,316.75z"/>
		<path class="st17" d="M299.83,445.91c0.34-0.18,19.17-59.28,22.93-70.69c3.16-9.57,5.56-19.7,4.13-29.67
			c-1.16-8.08-5.25-16.17-12.06-20.91c-2.53-1.76-6.76-4.06-9.9-2.55c-2.72,1.31-3.29,5.02-3.55,7.68
			c-3.11,31.92-11.65,78.7-16.16,111.1C288.02,441.63,290.8,450.69,299.83,445.91z"/>
		<path class="st18" d="M290.11,408.67c-1.82,11.5-3.53,22.49-4.88,32.19c2.8,0.76,5.58,9.83,14.61,5.05
			c0.18-0.1,5.73-17.27,11.39-34.89C308.51,410.93,294.11,410.31,290.11,408.67z"/>
		<path class="st17" d="M408.75,225.86c-1.64-1.99-1.88-4.39-2.47-7.06c-0.23-1.07-3.15-13.34-2.01-13.6
			c-6.42,1.4-17.19,4.21-22.91,4.87c2.06-0.24,2.24,10.16,2.3,11.34c0.12,2.35,0.37,4.85,0.17,7.2c-0.16,1.78-0.32,1.73-2.23,2.33
			c-2.36,0.74-4.73,1.48-7.09,2.22c-1.16,0.36-2.35,0.75-3.28,1.53c-1.05,0.89-1.65,2.19-2.17,3.47
			c-6.18,15.19-5.79,32.36-2.37,48.39c1.96,9.18,5.22,17.54,8.86,26.14c0.77,1.81,8.69,22.44,9.4,22.31
			c11.07-2.06,18.52-12.07,29.59-14.13c0.77-0.14,1.6-0.32,2.12-0.9c0.49-0.55,0.59-1.33,0.6-2.06c0.06-3.08-1.06-6.05-2.2-8.92
			c-3.14-7.93-6.57-17.31-5.8-26c0.34-3.86,1.64-7.56,3.12-11.14c4.04-9.78,9.5-18.9,13.99-28.48c0.8-1.71,1.58-3.48,1.72-5.37
			c0.1-1.3-0.14-2.68-0.92-3.73c-1.45-1.99-4.22-2.3-6.65-2.73c-3.9-0.68-7.81-2.14-10.84-4.74
			C409.34,226.52,409.02,226.19,408.75,225.86z"/>
		<path class="st14" d="M383.67,221.51c0.14,0.11,0.27,0.22,0.42,0.31c1.42,0.94,3.21,1.37,4.89,1.46c3.27,0.19,6.67-1.01,9.39-2.79
			c2.77-1.82,4.82-4.49,6.46-7.34c0.08-0.13,0.15-0.27,0.23-0.4c-0.76-4.05-1.23-7.45-0.78-7.55c-6.42,1.4-17.19,4.21-22.91,4.87
			C382.71,209.92,383.39,215.92,383.67,221.51z"/>
		<path class="st17" d="M435.56,332.87c0.22,2.66,0.01,5.34-0.68,7.93c-0.2,0.76-0.45,1.56-0.25,2.33
			c0.48,1.81,10.32,5.42,12.37,6.62c4.73,2.77,9.36,5.72,13.91,8.78c9.12,6.14,17.91,12.73,26.69,19.33
			c1.94,1.46,4.02,3.12,4.54,5.49c0.73,3.32-1.98,6.5-5.02,8.01c-4.33,2.14-9.4,2.09-14.22,1.69c-24.42-2.02-50.88-11.52-69.38-27.6
			c-5.59-4.86-11.75-8.82-14.59-15.67c-7.05-17-8.84-24.95-1.74-32.93c7.31-8.21,25.89-9.32,35.56-4.11
			C430.08,316.68,434.88,324.63,435.56,332.87z"/>
		<path class="st19" d="M444.01,365.94c3.04-4.14,8.13-11.68,10.12-16.44c-1.66-1.03-19.06-9.86-18.86-10.62
			c0.69-2.59,0.51-3.36,0.29-6.02c-0.68-8.23-5.48-16.19-12.79-20.13c-9.67-5.22-28.25-4.1-35.56,4.11
			c-7.1,7.98-6.23,14.6-1.59,32.4c3.04,11.69,31.15,33.36,40.9,37.71C431.56,381.96,439.81,371.67,444.01,365.94z"/>
		<path class="st17" d="M569.12,421.21c-0.2-0.24-12.41-10.59-12.53-10.74c-10.08-12.62-42-37.1-74.59-33.93
			c-5.92,0.58-19.02,2.4-17.58,10.19c1.42,7.66,17.28,11.82,23.28,14.08c14.28,5.37,57.17,22.95,73.18,28.64
			C561.68,428.23,569.06,421.43,569.12,421.21z"/>
		<path class="st18" d="M556.59,410.47c-2.73-3.42-7.07-7.71-12.59-12.09c-0.43,1.13-0.89,2.25-1.37,3.36
			c-2.58,5.91-5.84,11.64-9.71,16.95c11.23,4.45,21.68,8.52,27.97,10.76c0.8-1.21,8.17-8.02,8.23-8.23
			C568.92,420.97,556.71,410.62,556.59,410.47z"/>
		<path class="st20" d="M264.72,448.21c-1.39,0.25-2.82,0.34-4.11,0.99c-1.29,0.65-2.44,2.04-2.4,3.66
			c0.06,2.36,2.42,3.65,4.44,3.93c4.31,0.61,8.63-0.83,12.93-1.6c4.13-0.74,8.34-0.85,12.49-0.34c3,0.37,5.99,1.06,9.01,1.03
			c1.72-0.02,3.57-0.34,4.85-1.69c1.33-1.4,1.76-3.57,2.03-5.62c0.34-2.58,0.54-5.19,0.59-7.8c0.01-0.67-0.06-1.49-0.6-1.75
			c-0.45-0.22-0.95,0.11-1.37,0.42c-2.16,1.61-4.48,3.08-7.02,3.42c-2.29,0.31-4.86-0.46-6.37-2.55c-1.42-1.95-1.62-6.08-4.34-6.29
			c-2.45-0.19-4.26,3.05-5.77,4.8c-1.89,2.19-3.97,4.19-6.25,5.81C270.34,446.38,267.6,447.68,264.72,448.21z"/>
		<path class="st20" d="M553.39,451.65c0.9-0.1,1.8-0.24,2.68-0.42c3.44-0.69,7.06-2.18,8.69-5.29c0.63-1.21,0.91-2.56,1.32-3.86
			c0.91-2.92,2.5-5.63,4.61-7.84c1.95-2.06,4.49-3.97,4.86-6.79c0.41-3.12-2.06-5.81-4.35-7.97c-1.54-1.45-3.4-3.27-5.58-3.58
			c-0.03,2.74,0.76,6.28-0.58,8.95c-1.15,2.29-3.08,2.83-5.47,2.72c-2.52-0.12-5.64-1.66-6.53,1.57c-1,3.63,1.52,7.67-0.9,11.06
			c-1.01,1.42-2.68,2.21-4.28,2.92c-1.6,0.7-3.28,1.44-4.37,2.81c-1.09,1.37-1.34,3.58-0.05,4.76c0.75,0.68,1.82,0.87,2.83,0.98
			C548.63,451.92,551.03,451.91,553.39,451.65z"/>
		<path class="st21" d="M552.42,439.1c1.04-0.31,2.24-0.05,3.06,0.67c0.02,0.02,0.05,0.05,0.04,0.08c-0.01,0.03-0.07-0.01-0.04-0.02
			"/>
		<path class="st21" d="M552.85,437.32c0.39-0.44,1.06-0.5,1.65-0.44c0.58,0.06,1.15,0.21,1.68,0.45c-0.05,0.05-0.13,0.07-0.19,0.04
			"/>
		<path class="st21" d="M552.83,435.03c1.02-0.74,2.5-0.78,3.56-0.09c-0.08-0.06-0.17-0.11-0.25-0.17"/>
		<path class="st21" d="M552.55,432.76c1.16-0.8,2.84-0.74,3.94,0.14"/>
		<path class="st21" d="M542.57,449.62c1.88,0.68,3.93,0.66,5.93,0.61c2.75-0.08,5.54-0.23,8.15-1.11c2.61-0.88,5.04-2.59,6.23-5.08
			c0.53-1.11,0.79-2.32,1.16-3.48c0.91-2.87,2.52-5.51,4.65-7.64c1.37-1.37,2.95-2.53,4.15-4.04c1.21-1.51,2.03-3.51,1.52-5.37"/>
		<path class="st21" d="M553.49,432.11c-1.12-0.42-2.13-1.12-2.92-2.02c-0.24-0.28-0.46-0.74-0.18-0.98
			c0.09-0.08,0.21-0.11,0.34-0.13c0.79-0.12,1.59,0.29,2.15,0.87c0.56,0.58,0.91,1.31,1.26,2.04c-0.49-0.86-0.09-1.95,0.38-2.82
			c0.31-0.57,0.65-1.12,1.03-1.66c0.15-0.21,0.34-0.45,0.6-0.45c0.32,0,0.53,0.35,0.56,0.67c0.07,0.62-0.23,1.22-0.56,1.75
			c-0.49,0.78-1.06,1.5-1.62,2.22"/>
		<path class="st21" d="M570.67,418.96c-0.22,0.33-0.28,0.73-0.31,1.13c-0.27,2.88,0.55,5.84,2.26,8.18
			c0.06,0.09,0.22,0.15,0.24,0.05"/>
		<path class="st21" d="M545.13,444.63c1.47-0.24,2.98,0.44,4.02,1.51c1.04,1.07,1.65,2.48,2.05,3.91"/>
		<path class="st21" d="M258.3,453.39c1.03,1.27,2.69,1.87,4.32,1.98s3.25-0.24,4.84-0.57c8.04-1.68,16.28-3.25,24.43-2.18
			c3.17,0.42,6.48,1.22,9.51,0.17c0.57-0.2,1.13-0.47,1.58-0.87"/>
		<path class="st21" d="M274.29,443.49c1.26,0.2,2.4,1.05,2.96,2.21"/>
		<path class="st21" d="M275.31,442.39c0.63-0.38,1.47-0.27,2.11,0.11c0.64,0.38,1.11,0.97,1.53,1.58"/>
		<path class="st21" d="M277.19,440.67c0.63-0.29,1.39-0.19,2,0.14c0.61,0.32,1.1,0.84,1.51,1.39"/>
		<path class="st21" d="M278.65,439.01c0.65-0.3,1.45-0.16,2.06,0.21c0.62,0.37,1.08,0.95,1.47,1.56c-0.04-0.05-0.08-0.09-0.12-0.14
			"/>
		<path class="st21" d="M279.65,438.53c-0.46-0.8-0.93-1.63-1.08-2.54c-0.15-0.91,0.08-1.95,0.82-2.52
			c0.32-0.25,0.78-0.38,1.11-0.15c0.15,0.1,0.25,0.26,0.33,0.42c0.82,1.53,0.86,3.44,0.11,5.01c0.3-0.85,0.63-1.71,1.17-2.43
			c0.53-0.73,1.3-1.33,2.19-1.49c0.12-0.02,0.25-0.03,0.37,0c0.19,0.06,0.32,0.23,0.4,0.41c0.39,0.83,0.05,1.85-0.58,2.52
			c-0.63,0.67-1.49,1.05-2.32,1.42c-0.29,0.13-0.62,0.26-0.92,0.15"/>
		<path class="st21" d="M304.19,444.74c-3.09,1.63-5.26,4.89-5.56,8.37"/>
		<path class="st21" d="M262.01,448.62c1.36,0.29,2.55,1.22,3.29,2.41c0.74,1.18,1.05,2.61,1.01,4"/>
		<path class="st17" d="M376.23,194.32c-0.76-0.25-1.59-0.29-2.38-0.07c-1.44,0.41-2.65,1.73-3.05,3.27c-0.4,1.54,0,3.22,0.97,4.34
			c0.97,1.12,2.47,1.68,3.94,1.52c0.49-0.05,0.98-0.18,1.41-0.45c1.34-0.83,1.99-3.07,2.03-4.61
			C379.19,196.49,377.76,194.82,376.23,194.32z"/>
		<path class="st14" d="M379.07,199.16c-0.32-0.61-0.76-1.15-1.24-1.58c-0.73-0.63-1.71-1.15-2.7-0.86
			c-1.2,0.36-2.02,1.74-1.54,2.97c0.85,2.15,3.18,2.27,4.99,1.28C378.82,200.39,378.98,199.76,379.07,199.16z"/>
		<path class="st22" d="M375.73,196.73c0.01-0.01,0.01-0.01,0.01-0.02c0,0,0,0,0,0c0.02-0.04,0.04-0.08,0.02-0.14
			c-0.09-0.41-0.91-0.29-1.2-0.24c-0.67,0.12-1.23,0.73-1.45,1.41c-0.03,0.09,0.09,0.13,0.14,0.05c0.25-0.42,0.84-0.97,1.29-1.06
			c0.16-0.03,0.81-0.13,0.94,0.01c0.07,0.08,0.18,0.06,0.24,0c0,0,0,0,0,0C375.72,196.75,375.73,196.74,375.73,196.73z"/>
		<path class="st22" d="M375.71,199.67c0.14-0.54,0.1-1.07-0.16-1.53c-0.05-0.1-0.2,0-0.17,0.1c0.12,0.38,0.07,0.96-0.03,1.35
			c-0.09,0.33-0.17,0.67-0.41,0.93c-0.1,0.11-0.21,0.18-0.28,0.32c-0.05,0.11,0.04,0.23,0.14,0.21
			C375.4,200.95,375.58,200.18,375.71,199.67z"/>
		<path class="st17" d="M408.27,181.39c2.3,2.94,2.37,7,1.88,10.69c-0.73,5.48-2.55,10.89-5.77,15.42
			c-3.23,4.52-7.78,9.01-13.35,9.51c-2.77,0.25-10.2-0.55-12.52-2.96c-1.87-1.95-2.28-4.86-2.57-7.54c-0.69-6.37-0.06-12.87,1.83-19
			c0.53-1.74,1.18-3.46,2.14-5.01c2-3.22,5.36-5.54,9.04-6.53C395.06,174.32,404.23,176.21,408.27,181.39z"/>
		<path class="st16" d="M407.13,195.18c-0.81,3.38-1.98,7.22-5.47,8.75c-3.48,1.52-6.41-0.93-9.76-1.38
			c-3.65-0.5-7.33-0.19-10.9,0.67c-1.29,0.31-3.95,1.62-5.27,0.95c0.23,0.72,0.01,1.69-0.03,2.44c-0.15,2.53-0.38,6.36,1.61,8.3
			c0.94,0.92,2.27,1.3,3.56,1.57c2.32,0.49,4.69,0.74,7.05,0.99c2.24,0.23,4.53,0.47,6.73-0.01c3.4-0.73,6.28-3.11,8.27-5.95
			c2-2.85,3.21-6.16,4.29-9.47c1.05-3.21,1.99-6.45,2.82-9.73c0.15-0.57,0.69-1.56-0.18-1.52c-0.5,0.02-1.12,0.67-1.41,1.03
			C407.69,192.76,407.41,194.03,407.13,195.18z"/>
		<path class="st22" d="M386.32,199.87c0.07-0.56,0.19-1.16,0.37-1.69c0.32-0.95,0.48-1.94,0.79-2.89c0.34-1.04,0.57-2.16,0.86-3.23
			c0.05-0.18,0.33-0.17,0.33,0.03c0,0.87-0.36,1.74-0.52,2.6c-0.14,0.73-0.34,1.49-0.56,2.21c-0.24,0.81-0.41,1.65-0.58,2.48
			c-0.09,0.44-0.28,1.04-0.01,1.45c0.32,0.47,1.04,0.63,1.57,0.7c0.43,0.06,0.39,0.73-0.03,0.67c-0.81-0.13-1.75-0.4-2.14-1.19
			C386.22,200.63,386.27,200.26,386.32,199.87z"/>
		<path class="st22" d="M387.58,204.94c1.39-0.05,2.78-0.07,4.16-0.23c-0.04,0.56-0.5,1.18-0.81,1.59c-0.34,0.43-0.73,0.74-1.2,0.94
			c-1.39,0.85-3.67,0.09-3.96-1.8c-0.03-0.2-0.02-0.35,0.03-0.48C386.38,204.98,386.98,204.97,387.58,204.94z"/>
		<path class="st23" d="M385.81,205.67c-0.02-0.07-0.04-0.15-0.05-0.23c-0.03-0.2-0.02-0.35,0.03-0.48c0.6,0.02,1.19,0,1.79-0.02
			c1.39-0.05,2.78-0.07,4.16-0.23c-0.02,0.27-0.14,0.56-0.29,0.82C389.94,206.23,387.41,206.44,385.81,205.67z"/>
		<path class="st23" d="M389.7,207.26c-0.79,0.47-1.86,0.43-2.69-0.04C387.89,207.37,388.82,207.38,389.7,207.26z"/>
		<path class="st24" d="M392.96,191.4c0.03-0.18,0.21-0.31,0.37-0.4c0.99-0.57,2.01-0.6,3.1-0.41c0.99,0.17,1.85,0.52,2.4,1.41
			c0.05,0.09,0.1,0.18,0.12,0.28c0.05,0.27-0.15,0.52-0.38,0.68c-0.6,0.42-1.26,0.29-1.93,0.23c-0.79-0.07-1.6-0.3-2.35-0.55
			c-0.51-0.18-1.05-0.43-1.27-0.91C392.97,191.61,392.94,191.5,392.96,191.4z"/>
		<path class="st24" d="M378.93,189.07c0.03-0.18,0.21-0.31,0.37-0.4c0.99-0.57,2.01-0.6,3.1-0.41c0.99,0.17,1.85,0.52,2.4,1.41
			c0.05,0.09,0.1,0.18,0.12,0.28c0.05,0.27-0.15,0.52-0.38,0.68c-0.6,0.42-1.26,0.29-1.93,0.23c-0.79-0.07-1.6-0.3-2.35-0.55
			c-0.51-0.18-1.05-0.43-1.27-0.91C378.94,189.28,378.91,189.17,378.93,189.07z"/>
		<path class="st25" d="M392.94,196.15c0.1,0.78,0.81,1.34,1.6,1.24c0.78-0.1,1.34-0.81,1.24-1.6c-0.1-0.78-0.81-1.34-1.6-1.24
			C393.39,194.65,392.84,195.36,392.94,196.15z"/>
		<path class="st25" d="M381.52,194.69c0.1,0.78,0.71,1.35,1.36,1.27c0.65-0.08,1.1-0.78,1-1.57c-0.1-0.78-0.71-1.35-1.36-1.27
			C381.87,193.2,381.42,193.9,381.52,194.69z"/>
		<path class="st14" d="M397.76,199.08c0.68,0.39,1.31,1.1,1.17,1.88c-0.06,0.31-0.23,0.58-0.44,0.82
			c-1.04,1.16-2.81,1.28-4.35,1.06c-1.64-0.23-4.75-2.43-2.4-4.05C393.1,197.84,396.44,198.33,397.76,199.08z"/>
		<path class="st14" d="M383.84,197.91c0.68,0.39,1.31,1.1,1.17,1.88c-0.06,0.31-0.23,0.58-0.44,0.82
			c-1.04,1.16-2.81,1.28-4.35,1.06c-1.64-0.24-4.75-2.43-2.4-4.05C379.19,196.66,382.52,197.15,383.84,197.91z"/>
		<path class="st16" d="M413.36,184.89c0.1-1.48-0.02-3-0.62-4.35c-0.53-1.18-1.4-2.18-2.36-3.06c-3.85-3.53-8.89-5.33-13.92-6.42
			c-2.41-0.53-4.53-1.54-6.98-2.01c-2.98-0.57-6.03-0.83-9.06-0.79c-2.09,0.03-4.22,0.22-6.12,1.08c-1.74,0.78-3.36,2.52-2.94,4.37
			c0.44,1.94,2.74,2.74,4.7,3.03c-1.36,0.35-2.57,1.24-3.32,2.44c-0.14,0.22-0.27,0.47-0.27,0.73c0,0.78,0.98,1.12,1.76,1.2
			c5.54,0.61,11.11-0.09,16.65,0.29c4.45,0.3,10.04,1.59,12.69,5.62c0.73,1.1,1,2.44,1.18,3.74c0.5,3.64,0.35,7.36-0.43,10.95
			c-0.44,2.03,1.05,4.41,2.15,1.68c0.83-2.08,1.6-4.15,2.58-6.18C410.94,193.3,413.06,189.32,413.36,184.89z"/>
		<g>
			<path class="st17" d="M409,196.62c0.76-0.07,1.55,0.05,2.24,0.39c1.26,0.63,2.09,2,2.11,3.41c0.02,1.4-0.73,2.78-1.89,3.57
				c-1.16,0.79-2.69,0.98-4.04,0.56c-0.44-0.14-0.88-0.34-1.22-0.66c-1.07-0.98-1.16-3.03-0.85-4.37
				C405.73,197.93,407.45,196.76,409,196.62z"/>
			<path class="st14" d="M405.23,200.27c0.43-0.47,0.97-0.85,1.52-1.13c0.82-0.41,1.86-0.67,2.73-0.23
				c1.04,0.54,1.49,1.89,0.76,2.86c-1.29,1.7-3.49,1.36-4.97,0.15C405.19,201.37,405.18,200.8,405.23,200.27z"/>
			<path class="st22" d="M408.92,198.8c0-0.01-0.01-0.01-0.01-0.02c0,0,0,0,0,0c-0.01-0.04-0.01-0.08,0.01-0.12
				c0.18-0.34,0.92-0.08,1.18,0.02c0.6,0.23,0.99,0.87,1.04,1.5c0.01,0.08-0.11,0.09-0.14,0.02c-0.13-0.41-0.57-1-0.96-1.17
				c-0.14-0.06-0.73-0.26-0.88-0.17c-0.08,0.05-0.18,0.02-0.22-0.05c0,0,0,0,0,0C408.92,198.81,408.92,198.81,408.92,198.8z"/>
			<path class="st22" d="M408.27,201.35c0-0.49,0.15-0.94,0.49-1.3c0.07-0.08,0.19,0.04,0.13,0.12c-0.2,0.31-0.29,0.81-0.28,1.18
				c0.01,0.31,0,0.61,0.17,0.88c0.07,0.11,0.16,0.2,0.19,0.33c0.03,0.1-0.09,0.19-0.18,0.16
				C408.26,202.51,408.27,201.82,408.27,201.35z"/>
		</g>
		<path class="st20" d="M427.18,234.29c-1.45-1.99-4.22-2.3-6.65-2.73c-3.9-0.68-7.81-2.14-10.84-4.74c-0.3-0.26-0.56-0.52-0.8-0.8
			c-0.26,0.26-0.52,0.51-0.79,0.75c-4.23,3.87-10.06,6.8-15.87,6.98c-2.58,0.08-5.19-0.44-7.36-1.89c-0.64-0.43-1.22-0.93-1.73-1.48
			c-0.32,0.18-0.79,0.32-1.54,0.55c-2.36,0.74-4.73,1.48-7.09,2.22c-1.16,0.36-2.35,0.75-3.28,1.53c-3.01,2.54-4.98,6.6-5.8,10.18
			c-1.16,5.09-2.87,10.48-3.45,15.67c-1.13,10.08,1.14,20.7,3.43,30.61c1.29,5.58,3.23,10.98,5.16,16.37
			c2.78,7.75,5.56,15.49,8.35,23.24c6.02,2.07,12.47-1.1,18.05-4.17c5.73-3.16,11.45-6.32,17.18-9.47c4.71-2.6,9.58-7.25,5.65-12.88
			c-0.86-1.23-2.14-2.36-2.17-3.86c-0.01-0.72,0.28-1.43,0.26-2.15c-0.04-1.61-1.51-2.76-2.3-4.16c-0.76-1.35-0.88-2.95-0.93-4.49
			c-0.31-10.12,1.99-20.1,5.14-29.65c1.56-4.72,3.24-9.45,5.16-14.04C426.38,242.46,429.88,237.97,427.18,234.29z"/>
		<path class="st17" d="M434.19,194.32c0.63-2.61,1.31-5.25,1.92-7.9c-3.22-0.47-6.35-1.42-9.44-2.43c-1.47-0.48-3.1-1.33-4.62-1.56
			c-1.93-0.3-1.79,0.05-2.08,1.99c-0.99,6.54-2.35,12.87-4.26,19.22c-2.38,7.94-5.21,15.74-7.38,23.74
			c-1.9,7.01-5.18,16.71-1.94,23.73c1.42,3.07,4.24,5.58,7.58,6.1c2.52,0.39,5.13-0.37,7.28-1.75c2.15-1.37,3.88-3.32,5.34-5.42
			c3.88-5.55,4.85-12.19,5.65-18.78c0.87-7.16,1.06-14.38,1.02-21.59c-0.02-4.57-0.43-9.58,0.62-14.07
			C433.99,195.18,434.09,194.75,434.19,194.32z"/>
		<path class="st20" d="M408.98,220.7c-0.64,2.07-8.3,21.39-3.19,30.81c1.61,2.97,4.84,5.18,8.18,5.7c2.52,0.39,5.61-0.07,7.76-1.45
			c2.15-1.37,4.21-2.82,5.84-4.78c6.64-7.97,5.97-23.32,6.11-24.96C425.84,226.16,415.75,224.61,408.98,220.7z"/>
		<path class="st17" d="M431.55,136.52c-3.51,0.91-6.51,1.52-10.09,2.12c-0.06,0.79-4.3,40.28-3.73,49.2
			c0.18,2.77,0.42,5.63,1.68,8.11c4.63,9.18,13.17,1.68,15.53-4.81c1.52-4.17,1.73-8.68,1.84-13.12
			C437,168.98,431.58,136.68,431.55,136.52z"/>
		<path class="st17" d="M416.96,120.72c-0.19-1.03-0.24-2.15,0.7-2.61c1.05,1.73,1.52,5.43,2.21,7.49c0.15,0.43,0.78,0.31,0.76-0.14
			c-0.2-3.52-2.4-15.06-0.62-15.38c0.38-0.07,0.38,0.61,0.44,0.97l2.31,13.95c0.01,0.04,0.07,0.03,0.06-0.01l-1.04-13.45
			c-0.03-0.41-0.06-0.84,0.1-1.23c0.16-0.38,0.58-0.69,0.98-0.57c1.43,4.72,1.31,9.91,2.83,14.58c0.06,0.18,0.33,0.13,0.32-0.06
			c-0.21-4.13-0.92-7.57-0.96-11.42c-0.01-0.93,0.23-2.1,1.14-2.3c0.72,0.1,0.93,2.76,1.01,3.24c0.38,2.29,0.64,4.59,0.92,6.89
			c0.12,1,0.25,2,0.38,2.99c0.06,0.48,0.13,0.96,0.2,1.44c0.05,0.34-0.02,1.46,0.23,1.7c0.97-0.86,3.16-6.96,3.96-8.32
			c0.16-0.28,0.47-0.46,0.8-0.43c1.48,0.12-0.58,7.09-1.09,8.69c-1.08,3.41-1.12,7.05-0.92,10.62c0.13,2.23,0.3,4.62-1.02,6.47
			c-1.02,1.43-3.35,2.33-5.07,2c-4.12-0.78-4.44-6.37-5.29-9.77C419.02,130.99,417.91,125.87,416.96,120.72z"/>
		<path class="st17" d="M426.28,193.29c0.23,0.86,1.02,1.54,1.91,1.66s1.82-0.36,2.26-1.13"/>
		<path class="st26" d="M363.29,265.33c0.1,0.62,0.9,0.79,1.53,0.8c2,0.02,4-0.25,5.92-0.8"/>
		<path class="st26" d="M382.15,265.8c1.74-0.01,3.39,0.68,5.06,1.19c4.29,1.3,8.95,1.4,13.29,0.27"/>
		<path class="st26" d="M409.45,221.6c7.14,4.21,15.83,5.75,23.98,4.24"/>
		<path class="st26" d="M357.47,224.08c3.49,0.65,7.06-0.37,10.43-1.49c4.48-1.48,8.89-3.16,13.22-5.01"/>
		<path class="st26" d="M416.54,263.46c-2.8,9.68-4.81,19.83-3.48,29.82"/>
		<path class="st26" d="M413.92,296.26c1.42,1.49,1.89,3.81,1.17,5.74c-0.14,0.37-0.32,0.78-0.17,1.15c0.12,0.28,0.4,0.45,0.66,0.62
			c1.09,0.7,2.01,1.68,2.63,2.83c0.51,0.93,0.82,2.02,0.64,3.06c-0.18,1.05-0.94,2.03-1.97,2.27"/>
	</g>
	<g>
		<path class="st27" d="M455.83,194.49c0.03-0.78,0.31-6.95,0.31-7.73c4.91,0.42,10.45-0.34,15.33-0.76
			c-0.64,18.74-0.03,40.01-1.69,56.76c-0.56,5.61-1.44,11.59-5.22,15.77c-0.99,1.1-2.2,2.05-3.61,2.5
			c-2.84,0.89-6.04-0.52-7.96-2.79c-1.92-2.28-2.79-5.26-3.31-8.19C446.43,231.6,455.18,213.21,455.83,194.49z"/>
		<path class="st27" d="M470.92,143.14c0.06-0.15,0.12-0.3,0.18-0.44c3.05,1.61,6.16,3.11,9.34,4.44c-0.12,0.74-0.19,1.66-0.42,2.31
			c-0.81,6.9-4.7,34.51-7.17,42.64c-0.77,2.53-1.62,5.11-3.31,7.14c-6.28,7.49-12.55-1.31-13.32-7.83
			c-0.5-4.19,0.29-8.41,1.15-12.54c1.76-8.41,12.38-32.24,13.53-35.71C470.89,143.13,470.9,143.13,470.92,143.14z"/>
		<path class="st27" d="M488.15,130.15c0.4-0.91,0.69-1.94-0.08-2.57c-1.35,1.37-2.59,4.69-3.68,6.44c-0.23,0.37-0.79,0.12-0.67-0.3
			c0.95-3.21,5.5-13.41,3.92-14.09c-0.34-0.15-0.49,0.48-0.62,0.8l-5.18,12.41c-0.01,0.04-0.07,0.02-0.06-0.02l3.89-12.22
			c0.12-0.38,0.24-0.77,0.17-1.16c-0.07-0.39-0.39-0.76-0.78-0.74c-2.35,4.06-3.37,8.88-5.79,12.88c-0.09,0.15-0.33,0.05-0.28-0.13
			c1.09-3.77,2.5-6.8,3.37-10.36c0.21-0.86,0.25-1.99-0.55-2.38c-0.68-0.07-1.46,2.36-1.64,2.78c-0.85,2.03-1.59,4.11-2.35,6.18
			c-0.33,0.9-0.66,1.79-1,2.69c-0.16,0.43-0.33,0.86-0.49,1.29c-0.12,0.31-0.3,1.36-0.58,1.52c-0.71-1.01-1.41-7.13-1.85-8.55
			c-0.09-0.29-0.34-0.53-0.64-0.57c-1.39-0.21-1,6.69-0.88,8.28c0.26,3.39-0.5,6.77-1.46,10.03c-0.6,2.03-1.29,4.21-0.46,6.21
			c0.63,1.54,2.59,2.88,4.26,2.96c3.98,0.17,5.49-4.93,7.02-7.89C484.02,139.2,486.16,134.7,488.15,130.15z"/>
		<path class="st28" d="M494.24,328.6c-3.94-7.06-12.43-11.28-20.43-10.17l-41.33,4.04c-16.42,1.62-32.99,3.27-48.64,8.5
			c-2.45,0.82-5.15,1.99-6.03,4.42c-1.03,2.85,1.01,5.87,3.22,7.95c6.13,5.74,14.27,8.78,22.28,11.31
			c9.88,3.12,19.93,5.68,30.1,7.66c15.94,3.12,32.86,4.74,48.11-0.87c4.99-1.84,9.91-4.62,12.66-9.17c1.49-2.47,2.26-5.32,2.62-8.18
			C497.49,338.81,496.83,333.25,494.24,328.6z"/>
		<path class="st29" d="M376.01,341.37c-3.25,33.29-11.83,107.38-11.14,109.18c0.7,1.8,5.06,2.72,6.95,2.33
			c1.68-0.34,24.13-63.67,25.27-94.1c0.16-4.32,0.21-8.74-1.15-12.84c-1.73-5.19-5.85-9.65-10.94-11.71
			C378.75,331.7,376.59,335.39,376.01,341.37z"/>
		<path class="st28" d="M378.8,437.72c0.13,0.02,0.27,0.04,0.4,0.06c11.82-24.53,16.88-52.11,17.9-79.43
			c0.16-4.34,0.21-8.79-1.15-12.91c-1.73-5.22-5.85-9.7-10.94-11.77c-6.24-2.54-8.4,1.17-8.99,7.18
			c-3.06,31.46-7.54,62.61-10.6,94.08C369.36,436,374.78,437.16,378.8,437.72z"/>
		<path class="st30" d="M494.24,328.6c-0.47-0.84-1-1.64-1.59-2.39c-5.44,7.53-14.86,11.39-24.02,13.18
			c-12.2,2.38-24.91,1.95-37.21,0.61c-7.55-0.83-14.67-3.37-22.05-5.05c-4.06-0.92-8.27-1.66-12.45-1.35
			c-3.47,0.26-8.38,1.46-9.91,4.99c-0.98,2.26-0.37,4.47,0.34,6.71c0.34,1.08,0.63,2.15,0.9,3.23c4.7,2.64,9.91,4.48,15.08,6.11
			c9.88,3.12,19.93,5.68,30.1,7.66c15.94,3.11,32.86,4.74,48.11-0.87c4.99-1.84,9.91-4.62,12.66-9.17c1.49-2.47,2.26-5.32,2.62-8.18
			C497.49,338.81,496.83,333.25,494.24,328.6z"/>
		<path class="st30" d="M388.77,336.31c-0.76,0.62-1.37,1.38-1.77,2.28c-0.98,2.26-0.37,4.47,0.34,6.71
			c0.74,2.36,1.3,4.71,1.69,7.16c0.9,5.55,1.09,11.21,0.9,16.82c-0.36,10.88-2.19,21.65-5.47,32.03
			c-2.32,7.35-5.07,14.75-9.28,21.25c-2.47,3.8-5.59,7.45-9.48,9.74c-0.09,0.88-0.18,1.75-0.26,2.63c3.93,1.07,9.35,2.22,13.37,2.78
			c0.13,0.02,0.27,0.04,0.4,0.06c11.82-24.39,16.87-51.83,17.89-79c0.16-4.32,0.21-8.74-1.15-12.84
			C394.66,342.11,392.08,338.68,388.77,336.31z"/>
		<path class="st31" d="M496.94,206.51c1.1-2.56,1.93-5.22,2.46-7.93c0.86-4.37-2.76-7.81-6.08-10.28c-1.72-1.28-3.69-2.3-5.78-2.82
			c-0.5-0.12-1.88-0.07-2.27-0.36c-0.78-0.57-3.02-5.05-7.59-6.73c-3.89-1.43-8.94-0.35-12.68,1.02c-2.4,0.88-4.32,2.17-6.36,3.66
			c-2.4,1.75-4.74,3.08-6.79,5.36c-2.22,2.46-4.23,5.16-5.41,8.25c-3.78,9.96,2.58,15.66,8.38,22.97c2.47,3.12,5.13,6.38,8.87,7.74
			c2.46,0.9,5.16,0.88,7.75,0.49C482.94,226.18,492.31,217.31,496.94,206.51z"/>
		<path class="st29" d="M480.71,239.96C480.71,239.95,480.7,239.95,480.71,239.96c-0.75-1.72-4.89-20.48-3.82-20.71
			c-6.29,1.37-14.39,3.56-20,4.22c2.2-0.26,1.03,18.25-0.09,20.28c-1.61,2.91-12.87,13.62-15.87,17.45
			c-2.38,3.05-4.91,6.58-4.35,10.41c0.45,3.12,2.89,5.65,3.48,8.75c0.33,1.76,0.04,3.56-0.24,5.33c-0.65,4.08-1.27,8.23-0.82,12.34
			c0.49,4.43,2.2,8.63,3.9,12.75c3.83,9.31,11.2,26.42,15.03,35.73c10.85-2.02,18.16-11.83,29.01-13.85
			c0.75-0.14,1.56-0.31,2.07-0.88c0.48-0.54,0.58-1.3,0.59-2.02c0.06-3.02-1.04-5.94-2.15-8.75c-4.42-11.17-9.45-22.79-8.04-34.71
			c1.35-11.37,8.44-21.48,9.56-32.87c0.26-2.64,0.09-6.66-2.26-8.43C484.1,243.03,482.27,243.53,480.71,239.96z"/>
		<path class="st32" d="M487.46,321.01c-0.85-2.16-1.73-4.33-2.58-6.52c-5.6,3.17-11.78,5.27-17.91,7.17
			c-5.55,1.72-11.67,4.38-17.67,4.37c3.15,7.44,6.46,15.21,8.63,20.48c10.85-2.02,18.16-11.83,29.01-13.85
			c0.75-0.14,1.56-0.31,2.07-0.88c0.48-0.54,0.58-1.3,0.59-2.02C489.67,326.74,488.57,323.83,487.46,321.01z"/>
		<path class="st28" d="M489.61,329.76c0.06-3.02-1.04-5.94-2.15-8.75c-0.85-2.16-1.73-4.33-2.58-6.52
			c-4.55,2.58-9.49,4.44-14.47,6.07c0.35,0.59,0.63,1.28,0.81,2.09c1.04,4.59-2.66,9.01-5.16,12.45c-2.63,3.63-5.04,7.47-8.64,10.17
			c0.18,0.42,0.35,0.84,0.51,1.23c10.85-2.02,18.16-11.83,29.01-13.85c0.75-0.14,1.56-0.31,2.07-0.88
			C489.5,331.24,489.6,330.48,489.61,329.76z"/>
		<path class="st33" d="M483.96,263.85c-2.38,4.79-5.64,10.91-11.3,12.27c-2.79,0.67-5.96,0.06-8.24-1.7
			c-2.06-1.58-3.01-4.07-3.01-6.62c0.01-3.12,1.19-6.16,2.55-8.91c1.5-3.05,3.44-5.87,5.52-8.55c2-2.58,4.14-5.04,6.22-7.55
			c0.99-1.2,5.97-5.83,3.5-7.33c-1.56-0.94-4.52,5.12-5.4,6.46c-0.94,1.43-1.88,2.87-2.82,4.3c-0.51,0.79-2.32,2.68-2.35,3.58
			c-2.79,4.25-5.69,8.61-9.9,11.45c-4.22,2.84-10.13,3.79-14.32,0.92c-0.99-0.68-1.86-1.67-1.91-2.92
			c-0.54,0.54-1.06,1.29-1.57,1.94c-2.38,3.05-4.91,6.58-4.35,10.41c0.45,3.12,2.89,5.65,3.48,8.75c0.33,1.76,0.04,3.56-0.24,5.33
			c-0.36,2.28-0.72,4.57-0.88,6.87c1.98,0.73,4.01,1.33,6.05,1.82c8.98,2.18,18.51,2.53,27.64,1.08c2.23-0.35,4.49-0.83,6.71-1.44
			c-0.23-2.56-0.23-5.13,0.08-7.72c1.35-11.37,8.44-21.48,9.56-32.87c0.07-0.67,0.1-1.42,0.09-2.2
			C487.7,255.58,485.97,259.81,483.96,263.85z"/>
		<path class="st34" d="M463.25,238.34c2.9,0.12,5.79-1.75,7.87-3.58c2.38-2.09,4.23-4.7,5.86-7.4c0.25-0.42,0.5-0.84,0.73-1.27
			c-0.27-2.29-0.52-4.58-0.83-6.84c-6.29,1.37-14.39,3.56-20,4.22c0.78,3.86,1.52,8.12,1.55,12.03
			C459.7,237.04,461.37,238.26,463.25,238.34z"/>
		<path class="st29" d="M477.88,196.72c-0.93,6.28,0.97,13,5.3,17.68c-3.77,7.72-8.78,13.27-18.79,16.07
			c-4.24,1.19-9.1-0.22-11.33-3.97c-1.34-2.25-2.47-6.65-2.36-9.26c0.18-4.39,1.01-8.75,2.42-12.91c1.18-3.47,2.5-7.76,6.45-8.97
			c2.61-0.8,5.35,0.43,8.07,0.67c4.29,0.37,8.41-1.8,11.74-4.53C478.65,193.16,478.15,194.92,477.88,196.72z"/>
		<path class="st22" d="M460.06,212.01c0.08-0.6,0.2-1.25,0.39-1.83c0.34-1.02,0.51-2.1,0.84-3.13c0.36-1.13,0.61-2.33,0.92-3.48
			c0.05-0.19,0.35-0.18,0.35,0.03c-0.01,0.94-0.39,1.88-0.56,2.81c-0.15,0.79-0.37,1.61-0.6,2.39c-0.25,0.87-0.44,1.79-0.62,2.68
			c-0.09,0.47-0.3,1.13-0.01,1.56c0.34,0.5,1.1,0.68,1.65,0.75c0.45,0.06,0.41,0.79-0.04,0.72c-0.85-0.14-1.85-0.43-2.26-1.28
			C459.94,212.83,460,212.44,460.06,212.01z"/>
		<path class="st24" d="M474.26,207.61c-0.05,0.01-0.1,0.01-0.15,0.02c-0.97-0.89-1.87-1.91-2.99-2.52c-0.8-0.44-1.57-0.62-2.3-0.56
			c-0.05-0.11-0.08-0.23-0.1-0.36c-0.01-0.11,0-0.23,0.06-0.33c0.11-0.17,0.34-0.22,0.56-0.25c1.29-0.16,2.41,0.21,3.51,0.83
			c1,0.56,1.8,1.25,2.05,2.34c0.02,0.11,0.04,0.21,0.02,0.32C474.88,207.37,474.57,207.54,474.26,207.61z"/>
		<path class="st24" d="M457.15,201.69c-1-0.03-1.79,0.22-2.41,0.67c-0.1-0.07-0.19-0.15-0.26-0.25c-0.06-0.08-0.11-0.18-0.12-0.29
			c0-0.18,0.13-0.33,0.27-0.46c0.82-0.74,1.78-0.98,2.85-1.03c0.97-0.04,1.86,0.11,2.56,0.84c0.07,0.07,0.13,0.15,0.17,0.24
			c0.04,0.1,0.04,0.21,0.01,0.32C459.41,201.99,458.33,201.72,457.15,201.69z"/>
		<path class="st14" d="M472.61,213.34c0.57,0.51,1.01,1.31,0.72,2.02c-0.12,0.28-0.34,0.51-0.59,0.68
			c-1.22,0.88-2.92,0.63-4.34,0.11c-1.5-0.56-4-3.27-1.44-4.33C468.46,211.21,471.52,212.36,472.61,213.34z"/>
		<path class="st14" d="M458.05,210.2c0.6,0.39,1.12,1.08,0.95,1.77c-0.07,0.28-0.24,0.52-0.45,0.71c-1.01,0.99-2.62,0.99-4.01,0.7
			c-1.47-0.31-4.16-2.49-1.93-3.82C453.9,208.79,456.9,209.44,458.05,210.2z"/>
		<path class="st14" d="M461.83,218.17c-0.9-0.01-1.8-0.14-2.68-0.01c-0.09,0.01-0.18,0.03-0.24,0.09c-0.11,0.1-0.09,0.28-0.06,0.42
			c0.18,1.02,0.43,2.14,1.26,2.74c0.95,0.69,2.38,0.38,3.19-0.47c0.53-0.55,1.28-1.92,1.05-2.73c-0.19-0.65-0.38-0.39-0.95-0.23
			C462.89,218.14,462.36,218.18,461.83,218.17z"/>
		<path class="st22" d="M463.4,217.99c-0.51,0.14-1.04,0.18-1.57,0.18c-0.9-0.01-1.8-0.14-2.68-0.01c-0.09,0.01-0.18,0.03-0.24,0.09
			c-0.11,0.1-0.09,0.28-0.06,0.43c0.07,0.37,0.14,0.76,0.25,1.13c1.56-0.39,3.25-0.19,4.62,0.61c0.43-0.66,0.81-1.58,0.63-2.19
			C464.16,217.58,463.97,217.83,463.4,217.99z"/>
		<path class="st18" d="M462.66,218.9c0.49-0.26,0.89-0.63,1.22-1.07c-0.12,0.04-0.27,0.1-0.47,0.16c-0.51,0.14-1.04,0.18-1.57,0.18
			c-0.84-0.01-1.69-0.12-2.52-0.03C460.06,219.19,461.42,219.55,462.66,218.9z"/>
		<path class="st25" d="M456.16,206.21c-1.35,0.61-0.42,2.71,0.93,2.1C458.43,207.7,457.51,205.6,456.16,206.21z"/>
		<path class="st25" d="M471.51,209.31c-1.55,0.7-0.62,3.2,0.95,2.49C474.01,211.09,473.08,208.6,471.51,209.31z"/>
		<path class="st25" d="M455.47,206.42c-0.42,0.31-1.35,1.08-1.21,1.69c0.03,0.12,0.2,0.1,0.2-0.02c0.03-0.37,0.42-0.69,0.65-0.94
			c0.56-0.62,1.29-0.94,2.03-0.34c0.08,0.07,0.24-0.02,0.17-0.13C456.91,206.06,456.03,205.99,455.47,206.42z"/>
		<path class="st25" d="M471.11,209.1c-0.5,0.16-1.9,0.97-1.67,1.66c0.03,0.08,0.13,0.11,0.18,0.03c0.36-0.54,0.85-0.95,1.44-1.19
			c0.34-0.14,0.79-0.19,1.12-0.02c0.2,0.11,0.33,0.29,0.51,0.42c0.13,0.09,0.28-0.08,0.21-0.21
			C472.57,209.14,471.84,208.86,471.11,209.1z"/>
		<path class="st31" d="M503.89,181.45c6.98,1.12,13.35,5.53,16.85,11.67c6.26,10.99,2.89,24.73-0.65,36.88
			c-0.83,2.86-1.66,5.72-2.5,8.58c-1.04,3.57-2.85,7.81-6.55,8.14c0.11-3.74,0.22-7.48,0.32-11.23c-1.9,2.47-4.87,4.07-7.98,4.29
			c0.19-3.86,1.47-7.59,1.95-11.43c1.11-8.99-2.59-18.44-9.52-24.28c-2.67-2.25-5.78-3.99-8.23-6.49
			C476.43,186.26,494.44,179.93,503.89,181.45z"/>
		<path class="st32" d="M507.56,344.41c0.21,2.6,0.01,5.24-0.67,7.78c-0.2,0.75-0.44,1.53-0.24,2.28
			c0.47,1.78,10.12,5.31,12.13,6.49c4.64,2.71,9.18,5.61,13.63,8.61c8.94,6.02,17.56,12.48,26.17,18.95
			c1.9,1.43,3.94,3.06,4.46,5.38c0.72,3.26-1.94,6.38-4.93,7.85c-4.25,2.1-9.22,2.05-13.94,1.66c-23.95-1.98-49.88-11.3-68.02-27.06
			c-5.48-4.76-10.95-8.92-14.31-15.36c-4.54-8.72-7.17-23.19-0.2-31.01c7.17-8.05,23.88-10.41,33.36-5.3
			C502.18,328.54,506.89,336.33,507.56,344.41z"/>
		<path class="st29" d="M632.11,438.16c2.49,0.66,4.01-2.05,5.36-4.24c1.32-2.14-9.68-11.46-11.25-13.43
			c-9.88-12.37-41.18-36.38-73.13-33.26c-5.81,0.57-18.64,2.36-17.23,9.99c1.39,7.51,16.94,11.59,22.82,13.8
			C576.34,417.66,626.22,436.59,632.11,438.16z"/>
		<path class="st32" d="M622.85,430.34c1.49-2.75,2.77-5.64,3.67-8.64c0.06-0.21,0.12-0.41,0.18-0.62c-0.2-0.24-0.36-0.44-0.48-0.58
			c-9.88-12.37-41.18-36.38-73.13-33.26c-5.8,0.57-19.57,1.84-18.16,9.47c1.39,7.51,17.86,12.11,23.75,14.32
			c14,5.26,46.38,18.29,62.08,23.87C621.54,433.7,622.17,431.59,622.85,430.34z"/>
		<path class="st28" d="M563.04,393.89c-0.51-2.33-2.55-3.95-4.46-5.38c-8.61-6.46-17.23-12.93-26.17-18.95
			c-4.46-3-8.99-5.9-13.63-8.61c-2.01-1.18-11.67-4.71-12.13-6.49c-0.2-0.75,0.04-1.53,0.24-2.28c0.68-2.54,0.88-5.17,0.67-7.78
			c-0.67-8.07-5.37-15.87-12.54-19.74c-5.5-2.96-13.43-3.41-20.51-1.7c7.28,1.91,13.06,7,16.19,13.91c3,6.62,3.14,13.67,1.97,20.72
			c-0.18,1.1-0.49,2.41-0.16,3.53c5.42-0.02,10.81,0.99,15.93,2.75c10.41,3.59,19.25,9.78,27.57,16.85
			c6.39,5.43,13.4,10.77,17.97,17.9c2.11,0.29,4.3,0.26,6.39,0.39c0.38,0.02,0.76,0.05,1.14,0.07
			C562.75,397.59,563.45,395.76,563.04,393.89z"/>
		<path class="st28" d="M626.22,420.49c-9.88-12.37-41.18-36.38-73.13-33.26c-2.75,0.27-3.92-0.43-7.56,0.88
			c0.98,1.04,1.93,2.09,2.87,3.16c1.31,1.5-0.66,4.39,0.79,5.76c0,0,0.01,0,0.01,0.01c3.32,2.06,7.41,1.75,11.17,1.98
			c3.89,0.24,7.77,0.49,11.64,0.95c13.45,1.59,26.28,7,36.33,16.19c4.14,3.79,7.41,8.32,9.85,13.37c0.8,1.65,1.53,3.4,2.1,5.2
			c0.16,0.06,0.32,0.11,0.47,0.17c0.78-1.19,1.41-3.3,2.09-4.55c1.49-2.75,2.77-5.64,3.67-8.64c0.06-0.21,0.12-0.41,0.18-0.62
			C626.5,420.84,626.34,420.64,626.22,420.49z"/>
		<path class="st29" d="M495.57,205.06c0.21-0.8,1.83-7.2,2.06-8c-5.15-1.08-10.58-3.56-15.44-5.5
			c-5.12,19.36-12.28,40.91-15.73,58.55c-1.16,5.91-2.09,12.29,0.49,17.73c0.68,1.43,1.62,2.78,2.92,3.66
			c2.63,1.79,6.33,1.33,9-0.41c2.67-1.74,4.47-4.52,5.91-7.36C493.77,245.9,490.48,224.4,495.57,205.06z"/>
		<path class="st29" d="M495.96,147.91c-0.02-0.18-0.03-0.34-0.05-0.51c-3.61,0.71-7.25,1.28-10.92,1.67
			c-0.11,0.79-0.31,1.75-0.28,2.49c-1.29,7.3-5.82,36.73-5.79,45.8c0.01,2.82,0.08,5.72,1.19,8.32c4.11,9.59,13.23,2.52,16.03-3.91
			c1.8-4.13,2.29-8.69,2.68-13.17c0.79-9.14-2.74-36.77-2.84-40.68C495.98,147.92,495.97,147.92,495.96,147.91z"/>
		<path class="st29" d="M482.33,129.33c-0.13-1.06-0.11-2.2,0.87-2.6c0.96,1.81,1.2,5.6,1.78,7.72c0.12,0.45,0.78,0.36,0.78-0.1
			c0.02-3.58-1.5-15.4,0.33-15.62c0.39-0.05,0.35,0.64,0.39,1.01l1.47,14.28c0,0.04,0.06,0.04,0.06,0l-0.21-13.69
			c-0.01-0.42-0.01-0.86,0.18-1.24c0.19-0.38,0.63-0.66,1.03-0.52c1.15,4.87,0.71,10.11,1.95,14.95c0.05,0.18,0.32,0.15,0.32-0.04
			c0.05-4.19-0.46-7.72-0.26-11.63c0.05-0.94,0.36-2.12,1.29-2.26c0.72,0.14,0.77,2.86,0.82,3.35c0.24,2.34,0.36,4.69,0.51,7.04
			c0.06,1.02,0.12,2.04,0.2,3.06c0.03,0.49,0.07,0.98,0.11,1.47c0.03,0.35-0.11,1.48,0.12,1.73c1.03-0.81,3.64-6.86,4.52-8.18
			c0.18-0.27,0.51-0.44,0.83-0.39c1.49,0.21-1.03,7.15-1.65,8.73c-1.31,3.38-1.57,7.08-1.59,10.7c-0.01,2.26,0.02,4.7-1.44,6.49
			c-1.12,1.38-3.54,2.15-5.26,1.71c-4.12-1.05-4.1-6.73-4.75-10.23C483.77,139.86,482.97,134.6,482.33,129.33z"/>
		<path class="st21" d="M445.87,278.95c3.03,1.98,7.22,2.01,10.28,0.09"/>
		<path class="st21" d="M487.24,203.41c0.18,0.89,0.94,1.63,1.83,1.8c0.89,0.17,1.86-0.25,2.36-1.01"/>
		<path class="st21" d="M438.97,292.07c12.96,3.33,26.66,3.77,39.81,1.28"/>
		<path class="st33" d="M350.66,453.47c-0.9,0.17-1.83,0.22-2.67,0.64c-0.84,0.42-1.59,1.33-1.56,2.38
			c0.04,1.54,1.57,2.37,2.88,2.55c2.8,0.39,5.6-0.54,8.4-1.04c2.68-0.48,5.42-0.55,8.11-0.22c1.95,0.24,3.89,0.69,5.85,0.67
			c1.12-0.01,2.32-0.22,3.15-1.1c0.86-0.91,1.14-2.32,1.32-3.65c0.22-1.68,0.35-3.37,0.38-5.07c0.01-0.44-0.04-0.97-0.39-1.14
			c-0.29-0.14-0.62,0.07-0.89,0.27c-1.4,1.05-2.91,2-4.56,2.22c-1.49,0.2-3.15-0.3-4.14-1.65c-0.92-1.27-1.05-3.94-2.82-4.08
			c-1.59-0.12-2.76,1.98-3.75,3.11c-1.23,1.42-2.58,2.72-4.06,3.77C354.3,452.28,352.53,453.13,350.66,453.47z"/>
		<path class="st33" d="M627.02,453.5c0.61-0.07,1.22-0.16,1.83-0.29c2.35-0.47,4.81-1.49,5.93-3.61c0.43-0.82,0.62-1.75,0.9-2.63
			c0.62-1.99,1.71-3.84,3.14-5.35c1.33-1.4,3.06-2.71,3.31-4.63c0.28-2.13-1.4-3.96-2.97-5.44c-1.05-0.99-2.32-2.23-3.8-2.44
			c-0.02,1.87,0.52,4.28-0.39,6.1c-0.78,1.56-2.1,1.93-3.73,1.85c-1.72-0.08-3.84-1.13-4.45,1.07c-0.69,2.47,1.04,5.23-0.61,7.55
			c-0.69,0.97-1.83,1.51-2.92,1.99s-2.24,0.98-2.98,1.91c-0.74,0.93-0.91,2.44-0.03,3.25c0.51,0.47,1.24,0.59,1.93,0.67
			C623.77,453.69,625.4,453.69,627.02,453.5z"/>
		<path class="st21" d="M626.35,444.95c0.71-0.21,1.53-0.03,2.08,0.46c0.02,0.01,0.03,0.04,0.02,0.06
			c-0.01,0.02-0.05-0.01-0.03-0.02"/>
		<path class="st21" d="M626.65,443.73c0.27-0.3,0.72-0.34,1.12-0.3c0.39,0.04,0.78,0.15,1.14,0.31c-0.03,0.03-0.09,0.04-0.13,0.02"
			/>
		<path class="st21" d="M626.63,442.17c0.7-0.5,1.7-0.53,2.43-0.06c-0.06-0.04-0.11-0.08-0.17-0.11"/>
		<path class="st21" d="M626.44,440.62c0.79-0.54,1.94-0.5,2.69,0.1"/>
		<path class="st21" d="M619.63,452.12c1.28,0.46,2.68,0.45,4.05,0.42c1.88-0.05,3.78-0.15,5.56-0.76c1.78-0.6,3.44-1.77,4.25-3.46
			c0.36-0.75,0.54-1.58,0.79-2.38c0.62-1.96,1.72-3.76,3.17-5.21c0.93-0.93,2.01-1.72,2.83-2.75c0.82-1.03,1.38-2.39,1.04-3.66"/>
		<path class="st21" d="M627.08,440.18c-0.76-0.28-1.46-0.76-1.99-1.38c-0.17-0.19-0.31-0.5-0.12-0.67
			c0.06-0.06,0.15-0.08,0.23-0.09c0.54-0.08,1.09,0.2,1.46,0.59c0.38,0.39,0.62,0.9,0.86,1.39c-0.33-0.59-0.06-1.33,0.26-1.92
			c0.21-0.39,0.45-0.77,0.7-1.13c0.1-0.15,0.23-0.3,0.41-0.3c0.22,0,0.36,0.24,0.39,0.46c0.05,0.42-0.16,0.83-0.38,1.19
			c-0.33,0.53-0.72,1.02-1.11,1.51"/>
		<path class="st21" d="M638.8,431.22c-0.15,0.22-0.19,0.5-0.21,0.77c-0.18,1.96,0.38,3.98,1.54,5.58c0.04,0.06,0.15,0.1,0.16,0.03"
			/>
		<path class="st21" d="M621.38,448.72c1-0.16,2.04,0.3,2.74,1.03c0.71,0.73,1.13,1.69,1.4,2.67"/>
		<path class="st21" d="M346.49,456.84c0.67,0.82,1.75,1.22,2.8,1.29c1.06,0.07,2.11-0.15,3.14-0.37
			c5.22-1.09,10.57-2.11,15.86-1.41c2.06,0.27,4.21,0.8,6.17,0.11c0.37-0.13,0.73-0.3,1.03-0.56"/>
		<path class="st21" d="M356.87,450.41c0.82,0.13,1.56,0.68,1.92,1.43"/>
		<path class="st21" d="M357.53,449.69c0.41-0.25,0.96-0.17,1.37,0.07c0.41,0.24,0.72,0.63,1,1.02"/>
		<path class="st21" d="M358.75,448.57c0.41-0.19,0.9-0.12,1.3,0.09c0.4,0.21,0.71,0.55,0.98,0.9"/>
		<path class="st21" d="M359.7,447.5c0.42-0.2,0.94-0.11,1.34,0.13c0.4,0.24,0.7,0.62,0.95,1.01c-0.03-0.03-0.05-0.06-0.08-0.09"/>
		<path class="st21" d="M360.35,447.18c-0.3-0.52-0.6-1.06-0.7-1.65c-0.1-0.59,0.05-1.27,0.53-1.64c0.21-0.16,0.51-0.25,0.72-0.1
			c0.1,0.07,0.16,0.17,0.22,0.27c0.53,0.99,0.56,2.24,0.07,3.25c0.2-0.55,0.41-1.11,0.76-1.58c0.35-0.47,0.84-0.86,1.42-0.97
			c0.08-0.01,0.16-0.02,0.24,0c0.12,0.04,0.21,0.15,0.26,0.27c0.25,0.54,0.03,1.2-0.38,1.63c-0.41,0.43-0.97,0.68-1.51,0.92
			c-0.19,0.08-0.4,0.17-0.6,0.1"/>
		<path class="st21" d="M376.28,451.22c-2.01,1.06-3.42,3.18-3.61,5.44"/>
		<path class="st21" d="M348.9,453.74c0.89,0.19,1.66,0.79,2.13,1.56c0.48,0.77,0.68,1.69,0.66,2.6"/>
	</g>
</g>
</svg>
